<svg width="120" height="15" viewBox="0 0 120 15" fill="none" xmlns="http://www.w3.org/2000/svg">
<mask id="path-1-outside-1_225_3" maskUnits="userSpaceOnUse" x="-1" y="-1" width="122" height="17" fill="black">
<rect fill="white" x="-1" y="-1" width="122" height="17"/>
<path d="M0.908381 3.27273H2.16974L5.13565 10.517H5.23793L8.20384 3.27273H9.4652V12H8.47656V5.36932H8.39134L5.66406 12H4.70952L1.98224 5.36932H1.89702V12H0.908381V3.27273ZM12.641 3.27273V12H11.5842V3.27273H12.641ZM12.1126 2.18182C11.9165 2.18182 11.7475 2.11506 11.6055 1.98153C11.4663 1.84801 11.3967 1.6875 11.3967 1.5C11.3967 1.3125 11.4663 1.15199 11.6055 1.01847C11.7475 0.884943 11.9165 0.818182 12.1126 0.818182C12.3086 0.818182 12.4762 0.884943 12.6154 1.01847C12.7575 1.15199 12.8285 1.3125 12.8285 1.5C12.8285 1.6875 12.7575 1.84801 12.6154 1.98153C12.4762 2.11506 12.3086 2.18182 12.1126 2.18182ZM14.7599 12V3.27273H17.7088C18.3906 3.27273 18.9503 3.3892 19.3878 3.62216C19.8253 3.85227 20.1491 4.16903 20.3594 4.57244C20.5696 4.97585 20.6747 5.43466 20.6747 5.94886C20.6747 6.46307 20.5696 6.91903 20.3594 7.31676C20.1491 7.71449 19.8267 8.02699 19.392 8.25426C18.9574 8.47869 18.402 8.59091 17.7259 8.59091H15.3395V7.63636H17.6918C18.1577 7.63636 18.5327 7.56818 18.8168 7.43182C19.1037 7.29545 19.3111 7.10227 19.4389 6.85227C19.5696 6.59943 19.6349 6.2983 19.6349 5.94886C19.6349 5.59943 19.5696 5.29403 19.4389 5.03267C19.3082 4.77131 19.0994 4.5696 18.8125 4.42756C18.5256 4.28267 18.1463 4.21023 17.6747 4.21023H15.8168V12H14.7599ZM18.8679 8.07955L21.0156 12H19.7884L17.6747 8.07955H18.8679ZM22.7937 12H21.6857L24.8903 3.27273H25.9812L29.1857 12H28.0778L25.4698 4.65341H25.4016L22.7937 12ZM23.2028 8.59091H27.6687V9.52841H23.2028V8.59091ZM30.0646 3.27273V4.03977C30.0646 4.27273 30.022 4.52131 29.9368 4.78551C29.8544 5.04688 29.7322 5.30114 29.5703 5.5483C29.4112 5.79261 29.218 6.00568 28.9908 6.1875L28.4453 5.74432C28.6243 5.48864 28.7791 5.22301 28.9098 4.94744C29.0433 4.66903 29.1101 4.37216 29.1101 4.05682V3.27273H30.0646ZM38.4499 3.27273V12H37.4272L32.6715 5.14773H32.5863V12H31.5295V3.27273H32.5522L37.3249 10.142H37.4102V3.27273H38.4499ZM41.6214 3.27273V12H40.5646V3.27273H41.6214ZM50.6609 3.27273V12H49.6381L44.8825 5.14773H44.7972V12H43.7404V3.27273H44.7631L49.5359 10.142H49.6211V3.27273H50.6609ZM60.9233 5.45455C60.8722 5.02273 60.6648 4.6875 60.3011 4.44886C59.9375 4.21023 59.4915 4.09091 58.9631 4.09091C58.5767 4.09091 58.2386 4.15341 57.9489 4.27841C57.6619 4.40341 57.4375 4.57528 57.2756 4.79403C57.1165 5.01278 57.0369 5.26136 57.0369 5.53977C57.0369 5.77273 57.0923 5.97301 57.2031 6.14062C57.3168 6.3054 57.4616 6.44318 57.6378 6.55398C57.8139 6.66193 57.9986 6.75142 58.1918 6.82244C58.3849 6.89062 58.5625 6.94602 58.7244 6.98864L59.6108 7.22727C59.8381 7.28693 60.0909 7.36932 60.3693 7.47443C60.6506 7.57955 60.919 7.72301 61.1747 7.90483C61.4332 8.08381 61.6463 8.31392 61.8139 8.59517C61.9815 8.87642 62.0653 9.22159 62.0653 9.63068C62.0653 10.1023 61.9418 10.5284 61.6946 10.9091C61.4503 11.2898 61.0923 11.5923 60.6207 11.8168C60.152 12.0412 59.5824 12.1534 58.9119 12.1534C58.2869 12.1534 57.7457 12.0526 57.2884 11.8509C56.8338 11.6491 56.4759 11.3679 56.2145 11.0071C55.956 10.6463 55.8097 10.2273 55.7756 9.75H56.8665C56.8949 10.0795 57.0057 10.3523 57.1989 10.5682C57.3949 10.7812 57.642 10.9403 57.9403 11.0455C58.2415 11.1477 58.5653 11.1989 58.9119 11.1989C59.3153 11.1989 59.6776 11.1335 59.9986 11.0028C60.3196 10.8693 60.5739 10.6847 60.7614 10.4489C60.9489 10.2102 61.0426 9.93182 61.0426 9.61364C61.0426 9.32386 60.9616 9.08807 60.7997 8.90625C60.6378 8.72443 60.4247 8.5767 60.1605 8.46307C59.8963 8.34943 59.6108 8.25 59.304 8.16477L58.2301 7.85795C57.5483 7.66193 57.0085 7.3821 56.6108 7.01847C56.2131 6.65483 56.0142 6.17898 56.0142 5.59091C56.0142 5.10227 56.1463 4.67614 56.4105 4.3125C56.6776 3.94602 57.0355 3.66193 57.4844 3.46023C57.9361 3.25568 58.4403 3.15341 58.9972 3.15341C59.5597 3.15341 60.0597 3.25426 60.4972 3.45597C60.9347 3.65483 61.2813 3.92756 61.5369 4.27415C61.7955 4.62074 61.9318 5.0142 61.946 5.45455H60.9233ZM71.1665 7.63636C71.1665 8.55682 71.0004 9.35227 70.668 10.0227C70.3356 10.6932 69.8796 11.2102 69.3001 11.5739C68.7205 11.9375 68.0586 12.1193 67.3143 12.1193C66.57 12.1193 65.908 11.9375 65.3285 11.5739C64.7489 11.2102 64.293 10.6932 63.9606 10.0227C63.6282 9.35227 63.462 8.55682 63.462 7.63636C63.462 6.71591 63.6282 5.92045 63.9606 5.25C64.293 4.57955 64.7489 4.0625 65.3285 3.69886C65.908 3.33523 66.57 3.15341 67.3143 3.15341C68.0586 3.15341 68.7205 3.33523 69.3001 3.69886C69.8796 4.0625 70.3356 4.57955 70.668 5.25C71.0004 5.92045 71.1665 6.71591 71.1665 7.63636ZM70.1438 7.63636C70.1438 6.88068 70.0174 6.2429 69.7646 5.72301C69.5146 5.20312 69.1751 4.80966 68.7461 4.54261C68.32 4.27557 67.8427 4.14205 67.3143 4.14205C66.7859 4.14205 66.3072 4.27557 65.8782 4.54261C65.4521 4.80966 65.1126 5.20312 64.8597 5.72301C64.6097 6.2429 64.4847 6.88068 64.4847 7.63636C64.4847 8.39205 64.6097 9.02983 64.8597 9.54972C65.1126 10.0696 65.4521 10.4631 65.8782 10.7301C66.3072 10.9972 66.7859 11.1307 67.3143 11.1307C67.8427 11.1307 68.32 10.9972 68.7461 10.7301C69.1751 10.4631 69.5146 10.0696 69.7646 9.54972C70.0174 9.02983 70.1438 8.39205 70.1438 7.63636ZM79.864 3.27273V12H78.8413L74.0856 5.14773H74.0004V12H72.9435V3.27273H73.9663L78.739 10.142H78.8242V3.27273H79.864ZM86.4105 3.27273V12H85.3537V3.27273H86.4105ZM85.8821 2.18182C85.6861 2.18182 85.517 2.11506 85.375 1.98153C85.2358 1.84801 85.1662 1.6875 85.1662 1.5C85.1662 1.3125 85.2358 1.15199 85.375 1.01847C85.517 0.884943 85.6861 0.818182 85.8821 0.818182C86.0781 0.818182 86.2457 0.884943 86.3849 1.01847C86.527 1.15199 86.598 1.3125 86.598 1.5C86.598 1.6875 86.527 1.84801 86.3849 1.98153C86.2457 2.11506 86.0781 2.18182 85.8821 2.18182ZM93.3022 5.45455C93.2511 5.02273 93.0437 4.6875 92.68 4.44886C92.3164 4.21023 91.8704 4.09091 91.342 4.09091C90.9556 4.09091 90.6175 4.15341 90.3278 4.27841C90.0408 4.40341 89.8164 4.57528 89.6545 4.79403C89.4954 5.01278 89.4158 5.26136 89.4158 5.53977C89.4158 5.77273 89.4712 5.97301 89.582 6.14062C89.6957 6.3054 89.8406 6.44318 90.0167 6.55398C90.1928 6.66193 90.3775 6.75142 90.5707 6.82244C90.7638 6.89062 90.9414 6.94602 91.1033 6.98864L91.9897 7.22727C92.217 7.28693 92.4698 7.36932 92.7482 7.47443C93.0295 7.57955 93.2979 7.72301 93.5536 7.90483C93.8121 8.08381 94.0252 8.31392 94.1928 8.59517C94.3604 8.87642 94.4442 9.22159 94.4442 9.63068C94.4442 10.1023 94.3207 10.5284 94.0735 10.9091C93.8292 11.2898 93.4712 11.5923 92.9996 11.8168C92.5309 12.0412 91.9613 12.1534 91.2908 12.1534C90.6658 12.1534 90.1246 12.0526 89.6673 11.8509C89.2127 11.6491 88.8548 11.3679 88.5934 11.0071C88.3349 10.6463 88.1886 10.2273 88.1545 9.75H89.2454C89.2738 10.0795 89.3846 10.3523 89.5778 10.5682C89.7738 10.7812 90.021 10.9403 90.3192 11.0455C90.6204 11.1477 90.9442 11.1989 91.2908 11.1989C91.6942 11.1989 92.0565 11.1335 92.3775 11.0028C92.6985 10.8693 92.9528 10.6847 93.1403 10.4489C93.3278 10.2102 93.4215 9.93182 93.4215 9.61364C93.4215 9.32386 93.3406 9.08807 93.1786 8.90625C93.0167 8.72443 92.8036 8.5767 92.5394 8.46307C92.2752 8.34943 91.9897 8.25 91.6829 8.16477L90.609 7.85795C89.9272 7.66193 89.3874 7.3821 88.9897 7.01847C88.592 6.65483 88.3931 6.17898 88.3931 5.59091C88.3931 5.10227 88.5252 4.67614 88.7894 4.3125C89.0565 3.94602 89.4144 3.66193 89.8633 3.46023C90.315 3.25568 90.8192 3.15341 91.3761 3.15341C91.9386 3.15341 92.4386 3.25426 92.8761 3.45597C93.3136 3.65483 93.6602 3.92756 93.9158 4.27415C94.1744 4.62074 94.3107 5.0142 94.3249 5.45455H93.3022ZM90.8647 11.9659H91.6999L91.6317 12.3068C91.8533 12.3409 92.0565 12.4332 92.2411 12.5838C92.4258 12.7372 92.5181 12.9801 92.5181 13.3125C92.5181 13.679 92.3661 13.9773 92.0621 14.2074C91.761 14.4403 91.3164 14.5568 90.7283 14.5568L90.6942 13.892C90.9585 13.892 91.1772 13.8494 91.3505 13.7642C91.5266 13.6818 91.6147 13.5426 91.6147 13.3466C91.6147 13.1506 91.5423 13.017 91.3974 12.946C91.2525 12.875 91.0181 12.8267 90.6942 12.8011L90.8647 11.9659ZM96.1818 12V3.27273H97.2386V11.0625H101.295V12H96.1818ZM102.932 12V3.27273H108.199V4.21023H103.989V7.15909H107.926V8.09659H103.989V11.0625H108.267V12H102.932ZM110.104 12V3.27273H113.053C113.734 3.27273 114.294 3.3892 114.732 3.62216C115.169 3.85227 115.493 4.16903 115.703 4.57244C115.913 4.97585 116.018 5.43466 116.018 5.94886C116.018 6.46307 115.913 6.91903 115.703 7.31676C115.493 7.71449 115.17 8.02699 114.736 8.25426C114.301 8.47869 113.746 8.59091 113.07 8.59091H110.683V7.63636H113.036C113.501 7.63636 113.876 7.56818 114.161 7.43182C114.447 7.29545 114.655 7.10227 114.783 6.85227C114.913 6.59943 114.979 6.2983 114.979 5.94886C114.979 5.59943 114.913 5.29403 114.783 5.03267C114.652 4.77131 114.443 4.5696 114.156 4.42756C113.869 4.28267 113.49 4.21023 113.018 4.21023H111.161V12H110.104ZM114.212 8.07955L116.359 12H115.132L113.018 8.07955H114.212ZM118.836 3.27273V12H117.779V3.27273H118.836ZM118.308 2.18182C118.112 2.18182 117.943 2.11506 117.801 1.98153C117.662 1.84801 117.592 1.6875 117.592 1.5C117.592 1.3125 117.662 1.15199 117.801 1.01847C117.943 0.884943 118.112 0.818182 118.308 0.818182C118.504 0.818182 118.672 0.884943 118.811 1.01847C118.953 1.15199 119.024 1.3125 119.024 1.5C119.024 1.6875 118.953 1.84801 118.811 1.98153C118.672 2.11506 118.504 2.18182 118.308 2.18182Z"/>
</mask>
<path d="M0.908381 3.27273H2.16974L5.13565 10.517H5.23793L8.20384 3.27273H9.4652V12H8.47656V5.36932H8.39134L5.66406 12H4.70952L1.98224 5.36932H1.89702V12H0.908381V3.27273ZM12.641 3.27273V12H11.5842V3.27273H12.641ZM12.1126 2.18182C11.9165 2.18182 11.7475 2.11506 11.6055 1.98153C11.4663 1.84801 11.3967 1.6875 11.3967 1.5C11.3967 1.3125 11.4663 1.15199 11.6055 1.01847C11.7475 0.884943 11.9165 0.818182 12.1126 0.818182C12.3086 0.818182 12.4762 0.884943 12.6154 1.01847C12.7575 1.15199 12.8285 1.3125 12.8285 1.5C12.8285 1.6875 12.7575 1.84801 12.6154 1.98153C12.4762 2.11506 12.3086 2.18182 12.1126 2.18182ZM14.7599 12V3.27273H17.7088C18.3906 3.27273 18.9503 3.3892 19.3878 3.62216C19.8253 3.85227 20.1491 4.16903 20.3594 4.57244C20.5696 4.97585 20.6747 5.43466 20.6747 5.94886C20.6747 6.46307 20.5696 6.91903 20.3594 7.31676C20.1491 7.71449 19.8267 8.02699 19.392 8.25426C18.9574 8.47869 18.402 8.59091 17.7259 8.59091H15.3395V7.63636H17.6918C18.1577 7.63636 18.5327 7.56818 18.8168 7.43182C19.1037 7.29545 19.3111 7.10227 19.4389 6.85227C19.5696 6.59943 19.6349 6.2983 19.6349 5.94886C19.6349 5.59943 19.5696 5.29403 19.4389 5.03267C19.3082 4.77131 19.0994 4.5696 18.8125 4.42756C18.5256 4.28267 18.1463 4.21023 17.6747 4.21023H15.8168V12H14.7599ZM18.8679 8.07955L21.0156 12H19.7884L17.6747 8.07955H18.8679ZM22.7937 12H21.6857L24.8903 3.27273H25.9812L29.1857 12H28.0778L25.4698 4.65341H25.4016L22.7937 12ZM23.2028 8.59091H27.6687V9.52841H23.2028V8.59091ZM30.0646 3.27273V4.03977C30.0646 4.27273 30.022 4.52131 29.9368 4.78551C29.8544 5.04688 29.7322 5.30114 29.5703 5.5483C29.4112 5.79261 29.218 6.00568 28.9908 6.1875L28.4453 5.74432C28.6243 5.48864 28.7791 5.22301 28.9098 4.94744C29.0433 4.66903 29.1101 4.37216 29.1101 4.05682V3.27273H30.0646ZM38.4499 3.27273V12H37.4272L32.6715 5.14773H32.5863V12H31.5295V3.27273H32.5522L37.3249 10.142H37.4102V3.27273H38.4499ZM41.6214 3.27273V12H40.5646V3.27273H41.6214ZM50.6609 3.27273V12H49.6381L44.8825 5.14773H44.7972V12H43.7404V3.27273H44.7631L49.5359 10.142H49.6211V3.27273H50.6609ZM60.9233 5.45455C60.8722 5.02273 60.6648 4.6875 60.3011 4.44886C59.9375 4.21023 59.4915 4.09091 58.9631 4.09091C58.5767 4.09091 58.2386 4.15341 57.9489 4.27841C57.6619 4.40341 57.4375 4.57528 57.2756 4.79403C57.1165 5.01278 57.0369 5.26136 57.0369 5.53977C57.0369 5.77273 57.0923 5.97301 57.2031 6.14062C57.3168 6.3054 57.4616 6.44318 57.6378 6.55398C57.8139 6.66193 57.9986 6.75142 58.1918 6.82244C58.3849 6.89062 58.5625 6.94602 58.7244 6.98864L59.6108 7.22727C59.8381 7.28693 60.0909 7.36932 60.3693 7.47443C60.6506 7.57955 60.919 7.72301 61.1747 7.90483C61.4332 8.08381 61.6463 8.31392 61.8139 8.59517C61.9815 8.87642 62.0653 9.22159 62.0653 9.63068C62.0653 10.1023 61.9418 10.5284 61.6946 10.9091C61.4503 11.2898 61.0923 11.5923 60.6207 11.8168C60.152 12.0412 59.5824 12.1534 58.9119 12.1534C58.2869 12.1534 57.7457 12.0526 57.2884 11.8509C56.8338 11.6491 56.4759 11.3679 56.2145 11.0071C55.956 10.6463 55.8097 10.2273 55.7756 9.75H56.8665C56.8949 10.0795 57.0057 10.3523 57.1989 10.5682C57.3949 10.7812 57.642 10.9403 57.9403 11.0455C58.2415 11.1477 58.5653 11.1989 58.9119 11.1989C59.3153 11.1989 59.6776 11.1335 59.9986 11.0028C60.3196 10.8693 60.5739 10.6847 60.7614 10.4489C60.9489 10.2102 61.0426 9.93182 61.0426 9.61364C61.0426 9.32386 60.9616 9.08807 60.7997 8.90625C60.6378 8.72443 60.4247 8.5767 60.1605 8.46307C59.8963 8.34943 59.6108 8.25 59.304 8.16477L58.2301 7.85795C57.5483 7.66193 57.0085 7.3821 56.6108 7.01847C56.2131 6.65483 56.0142 6.17898 56.0142 5.59091C56.0142 5.10227 56.1463 4.67614 56.4105 4.3125C56.6776 3.94602 57.0355 3.66193 57.4844 3.46023C57.9361 3.25568 58.4403 3.15341 58.9972 3.15341C59.5597 3.15341 60.0597 3.25426 60.4972 3.45597C60.9347 3.65483 61.2813 3.92756 61.5369 4.27415C61.7955 4.62074 61.9318 5.0142 61.946 5.45455H60.9233ZM71.1665 7.63636C71.1665 8.55682 71.0004 9.35227 70.668 10.0227C70.3356 10.6932 69.8796 11.2102 69.3001 11.5739C68.7205 11.9375 68.0586 12.1193 67.3143 12.1193C66.57 12.1193 65.908 11.9375 65.3285 11.5739C64.7489 11.2102 64.293 10.6932 63.9606 10.0227C63.6282 9.35227 63.462 8.55682 63.462 7.63636C63.462 6.71591 63.6282 5.92045 63.9606 5.25C64.293 4.57955 64.7489 4.0625 65.3285 3.69886C65.908 3.33523 66.57 3.15341 67.3143 3.15341C68.0586 3.15341 68.7205 3.33523 69.3001 3.69886C69.8796 4.0625 70.3356 4.57955 70.668 5.25C71.0004 5.92045 71.1665 6.71591 71.1665 7.63636ZM70.1438 7.63636C70.1438 6.88068 70.0174 6.2429 69.7646 5.72301C69.5146 5.20312 69.1751 4.80966 68.7461 4.54261C68.32 4.27557 67.8427 4.14205 67.3143 4.14205C66.7859 4.14205 66.3072 4.27557 65.8782 4.54261C65.4521 4.80966 65.1126 5.20312 64.8597 5.72301C64.6097 6.2429 64.4847 6.88068 64.4847 7.63636C64.4847 8.39205 64.6097 9.02983 64.8597 9.54972C65.1126 10.0696 65.4521 10.4631 65.8782 10.7301C66.3072 10.9972 66.7859 11.1307 67.3143 11.1307C67.8427 11.1307 68.32 10.9972 68.7461 10.7301C69.1751 10.4631 69.5146 10.0696 69.7646 9.54972C70.0174 9.02983 70.1438 8.39205 70.1438 7.63636ZM79.864 3.27273V12H78.8413L74.0856 5.14773H74.0004V12H72.9435V3.27273H73.9663L78.739 10.142H78.8242V3.27273H79.864ZM86.4105 3.27273V12H85.3537V3.27273H86.4105ZM85.8821 2.18182C85.6861 2.18182 85.517 2.11506 85.375 1.98153C85.2358 1.84801 85.1662 1.6875 85.1662 1.5C85.1662 1.3125 85.2358 1.15199 85.375 1.01847C85.517 0.884943 85.6861 0.818182 85.8821 0.818182C86.0781 0.818182 86.2457 0.884943 86.3849 1.01847C86.527 1.15199 86.598 1.3125 86.598 1.5C86.598 1.6875 86.527 1.84801 86.3849 1.98153C86.2457 2.11506 86.0781 2.18182 85.8821 2.18182ZM93.3022 5.45455C93.2511 5.02273 93.0437 4.6875 92.68 4.44886C92.3164 4.21023 91.8704 4.09091 91.342 4.09091C90.9556 4.09091 90.6175 4.15341 90.3278 4.27841C90.0408 4.40341 89.8164 4.57528 89.6545 4.79403C89.4954 5.01278 89.4158 5.26136 89.4158 5.53977C89.4158 5.77273 89.4712 5.97301 89.582 6.14062C89.6957 6.3054 89.8406 6.44318 90.0167 6.55398C90.1928 6.66193 90.3775 6.75142 90.5707 6.82244C90.7638 6.89062 90.9414 6.94602 91.1033 6.98864L91.9897 7.22727C92.217 7.28693 92.4698 7.36932 92.7482 7.47443C93.0295 7.57955 93.2979 7.72301 93.5536 7.90483C93.8121 8.08381 94.0252 8.31392 94.1928 8.59517C94.3604 8.87642 94.4442 9.22159 94.4442 9.63068C94.4442 10.1023 94.3207 10.5284 94.0735 10.9091C93.8292 11.2898 93.4712 11.5923 92.9996 11.8168C92.5309 12.0412 91.9613 12.1534 91.2908 12.1534C90.6658 12.1534 90.1246 12.0526 89.6673 11.8509C89.2127 11.6491 88.8548 11.3679 88.5934 11.0071C88.3349 10.6463 88.1886 10.2273 88.1545 9.75H89.2454C89.2738 10.0795 89.3846 10.3523 89.5778 10.5682C89.7738 10.7812 90.021 10.9403 90.3192 11.0455C90.6204 11.1477 90.9442 11.1989 91.2908 11.1989C91.6942 11.1989 92.0565 11.1335 92.3775 11.0028C92.6985 10.8693 92.9528 10.6847 93.1403 10.4489C93.3278 10.2102 93.4215 9.93182 93.4215 9.61364C93.4215 9.32386 93.3406 9.08807 93.1786 8.90625C93.0167 8.72443 92.8036 8.5767 92.5394 8.46307C92.2752 8.34943 91.9897 8.25 91.6829 8.16477L90.609 7.85795C89.9272 7.66193 89.3874 7.3821 88.9897 7.01847C88.592 6.65483 88.3931 6.17898 88.3931 5.59091C88.3931 5.10227 88.5252 4.67614 88.7894 4.3125C89.0565 3.94602 89.4144 3.66193 89.8633 3.46023C90.315 3.25568 90.8192 3.15341 91.3761 3.15341C91.9386 3.15341 92.4386 3.25426 92.8761 3.45597C93.3136 3.65483 93.6602 3.92756 93.9158 4.27415C94.1744 4.62074 94.3107 5.0142 94.3249 5.45455H93.3022ZM90.8647 11.9659H91.6999L91.6317 12.3068C91.8533 12.3409 92.0565 12.4332 92.2411 12.5838C92.4258 12.7372 92.5181 12.9801 92.5181 13.3125C92.5181 13.679 92.3661 13.9773 92.0621 14.2074C91.761 14.4403 91.3164 14.5568 90.7283 14.5568L90.6942 13.892C90.9585 13.892 91.1772 13.8494 91.3505 13.7642C91.5266 13.6818 91.6147 13.5426 91.6147 13.3466C91.6147 13.1506 91.5423 13.017 91.3974 12.946C91.2525 12.875 91.0181 12.8267 90.6942 12.8011L90.8647 11.9659ZM96.1818 12V3.27273H97.2386V11.0625H101.295V12H96.1818ZM102.932 12V3.27273H108.199V4.21023H103.989V7.15909H107.926V8.09659H103.989V11.0625H108.267V12H102.932ZM110.104 12V3.27273H113.053C113.734 3.27273 114.294 3.3892 114.732 3.62216C115.169 3.85227 115.493 4.16903 115.703 4.57244C115.913 4.97585 116.018 5.43466 116.018 5.94886C116.018 6.46307 115.913 6.91903 115.703 7.31676C115.493 7.71449 115.17 8.02699 114.736 8.25426C114.301 8.47869 113.746 8.59091 113.07 8.59091H110.683V7.63636H113.036C113.501 7.63636 113.876 7.56818 114.161 7.43182C114.447 7.29545 114.655 7.10227 114.783 6.85227C114.913 6.59943 114.979 6.2983 114.979 5.94886C114.979 5.59943 114.913 5.29403 114.783 5.03267C114.652 4.77131 114.443 4.5696 114.156 4.42756C113.869 4.28267 113.49 4.21023 113.018 4.21023H111.161V12H110.104ZM114.212 8.07955L116.359 12H115.132L113.018 8.07955H114.212ZM118.836 3.27273V12H117.779V3.27273H118.836ZM118.308 2.18182C118.112 2.18182 117.943 2.11506 117.801 1.98153C117.662 1.84801 117.592 1.6875 117.592 1.5C117.592 1.3125 117.662 1.15199 117.801 1.01847C117.943 0.884943 118.112 0.818182 118.308 0.818182C118.504 0.818182 118.672 0.884943 118.811 1.01847C118.953 1.15199 119.024 1.3125 119.024 1.5C119.024 1.6875 118.953 1.84801 118.811 1.98153C118.672 2.11506 118.504 2.18182 118.308 2.18182Z" fill="#7C7F9E"/>
<path d="M0.908381 3.27273V2.27273H-0.0916193V3.27273H0.908381ZM2.16974 3.27273L3.09519 2.89384L2.8409 2.27273H2.16974V3.27273ZM5.13565 10.517L4.21021 10.8959L4.4645 11.517H5.13565V10.517ZM5.23793 10.517V11.517H5.90908L6.16337 10.8959L5.23793 10.517ZM8.20384 3.27273V2.27273H7.53268L7.27839 2.89384L8.20384 3.27273ZM9.4652 3.27273H10.4652V2.27273H9.4652V3.27273ZM9.4652 12V13H10.4652V12H9.4652ZM8.47656 12H7.47656V13H8.47656V12ZM8.47656 5.36932H9.47656V4.36932H8.47656V5.36932ZM8.39134 5.36932V4.36932H7.72136L7.46651 4.98893L8.39134 5.36932ZM5.66406 12V13H6.33404L6.58889 12.3804L5.66406 12ZM4.70952 12L3.78469 12.3804L4.03954 13H4.70952V12ZM1.98224 5.36932L2.90707 4.98893L2.65222 4.36932H1.98224V5.36932ZM1.89702 5.36932V4.36932H0.897017V5.36932H1.89702ZM1.89702 12V13H2.89702V12H1.89702ZM0.908381 12H-0.0916193V13H0.908381V12ZM0.908381 4.27273H2.16974V2.27273H0.908381V4.27273ZM1.2443 3.65161L4.21021 10.8959L6.0611 10.1382L3.09519 2.89384L1.2443 3.65161ZM5.13565 11.517H5.23793V9.51705H5.13565V11.517ZM6.16337 10.8959L9.12928 3.65161L7.27839 2.89384L4.31248 10.1382L6.16337 10.8959ZM8.20384 4.27273H9.4652V2.27273H8.20384V4.27273ZM8.4652 3.27273V12H10.4652V3.27273H8.4652ZM9.4652 11H8.47656V13H9.4652V11ZM9.47656 12V5.36932H7.47656V12H9.47656ZM8.47656 4.36932H8.39134V6.36932H8.47656V4.36932ZM7.46651 4.98893L4.73924 11.6196L6.58889 12.3804L9.31616 5.74971L7.46651 4.98893ZM5.66406 11H4.70952V13H5.66406V11ZM5.63434 11.6196L2.90707 4.98893L1.05742 5.74971L3.78469 12.3804L5.63434 11.6196ZM1.98224 4.36932H1.89702V6.36932H1.98224V4.36932ZM0.897017 5.36932V12H2.89702V5.36932H0.897017ZM1.89702 11H0.908381V13H1.89702V11ZM1.90838 12V3.27273H-0.0916193V12H1.90838ZM12.641 3.27273H13.641V2.27273H12.641V3.27273ZM12.641 12V13H13.641V12H12.641ZM11.5842 12H10.5842V13H11.5842V12ZM11.5842 3.27273V2.27273H10.5842V3.27273H11.5842ZM11.6055 1.98153L10.9132 2.70325L10.9206 2.71016L11.6055 1.98153ZM11.6055 1.01847L10.9205 0.2898L10.9132 0.296785L11.6055 1.01847ZM12.6154 1.01847L11.9232 1.74018L11.9305 1.74709L12.6154 1.01847ZM12.6154 1.98153L11.9305 1.25287L11.9232 1.25985L12.6154 1.98153ZM11.641 3.27273V12H13.641V3.27273H11.641ZM12.641 11H11.5842V13H12.641V11ZM12.5842 12V3.27273H10.5842V12H12.5842ZM11.5842 4.27273H12.641V2.27273H11.5842V4.27273ZM12.1126 1.18182C12.1304 1.18182 12.1648 1.18533 12.2061 1.20166C12.2476 1.21803 12.276 1.23939 12.2904 1.25291L10.9206 2.71016C11.2492 3.01907 11.6636 3.18182 12.1126 3.18182V1.18182ZM12.2977 1.25985C12.3141 1.27555 12.3431 1.30965 12.3663 1.36317C12.3898 1.4173 12.3967 1.46684 12.3967 1.5H10.3967C10.3967 1.96864 10.5838 2.38721 10.9132 2.70322L12.2977 1.25985ZM12.3967 1.5C12.3967 1.53316 12.3898 1.5827 12.3663 1.63683C12.3431 1.69035 12.3141 1.72445 12.2977 1.74015L10.9132 0.296785C10.5838 0.612794 10.3967 1.03136 10.3967 1.5H12.3967ZM12.2904 1.74709C12.276 1.76061 12.2476 1.78197 12.2061 1.79834C12.1648 1.81467 12.1304 1.81818 12.1126 1.81818V-0.181818C11.6636 -0.181818 11.2492 -0.0190747 10.9206 0.289837L12.2904 1.74709ZM12.1126 1.81818C12.0949 1.81818 12.059 1.8147 12.0153 1.79727C11.9712 1.77973 11.9401 1.75639 11.9232 1.74015L13.3076 0.296783C12.9789 -0.0185466 12.5619 -0.181818 12.1126 -0.181818V1.81818ZM11.9305 1.74709C11.9149 1.73244 11.885 1.6985 11.8607 1.64363C11.8361 1.58789 11.8285 1.53595 11.8285 1.5H13.8285C13.8285 1.02444 13.6344 0.603898 13.3003 0.289838L11.9305 1.74709ZM11.8285 1.5C11.8285 1.46405 11.8361 1.41211 11.8607 1.35637C11.885 1.3015 11.9149 1.26755 11.9305 1.25291L13.3003 2.71016C13.6344 2.3961 13.8285 1.97556 13.8285 1.5H11.8285ZM11.9232 1.25985C11.9401 1.24361 11.9712 1.22027 12.0153 1.20273C12.059 1.1853 12.0949 1.18182 12.1126 1.18182V3.18182C12.5619 3.18182 12.9789 3.01855 13.3076 2.70322L11.9232 1.25985ZM14.7599 12H13.7599V13H14.7599V12ZM14.7599 3.27273V2.27273H13.7599V3.27273H14.7599ZM19.3878 3.62216L18.9178 4.50484L18.9223 4.5072L19.3878 3.62216ZM20.3594 4.57244L19.4726 5.03458L19.4726 5.03458L20.3594 4.57244ZM20.3594 7.31676L19.4753 6.84945L19.4753 6.84945L20.3594 7.31676ZM19.392 8.25426L19.8508 9.14282L19.8554 9.14043L19.392 8.25426ZM15.3395 8.59091H14.3395V9.59091H15.3395V8.59091ZM15.3395 7.63636V6.63636H14.3395V7.63636H15.3395ZM18.8168 7.43182L18.3875 6.52862L18.384 6.53029L18.8168 7.43182ZM19.4389 6.85227L18.5506 6.39312L18.5486 6.39698L19.4389 6.85227ZM18.8125 4.42756L18.3617 5.32024L18.3688 5.32375L18.8125 4.42756ZM15.8168 4.21023V3.21023H14.8168V4.21023H15.8168ZM15.8168 12V13H16.8168V12H15.8168ZM18.8679 8.07955L19.7449 7.59909L19.4603 7.07955H18.8679V8.07955ZM21.0156 12V13H22.7037L21.8926 11.5195L21.0156 12ZM19.7884 12L18.9081 12.4746L19.1914 13H19.7884V12ZM17.6747 8.07955V7.07955H15.9995L16.7945 8.5541L17.6747 8.07955ZM15.7599 12V3.27273H13.7599V12H15.7599ZM14.7599 4.27273H17.7088V2.27273H14.7599V4.27273ZM17.7088 4.27273C18.2852 4.27273 18.669 4.37237 18.9178 4.50483L19.8578 2.73949C19.2315 2.40604 18.4961 2.27273 17.7088 2.27273V4.27273ZM18.9223 4.5072C19.196 4.65115 19.3647 4.8275 19.4726 5.03458L21.2462 4.1103C20.9336 3.51057 20.4546 3.0534 19.8533 2.73712L18.9223 4.5072ZM19.4726 5.03458C19.5992 5.27761 19.6747 5.57437 19.6747 5.94886H21.6747C21.6747 5.29495 21.54 4.67409 21.2462 4.1103L19.4726 5.03458ZM19.6747 5.94886C19.6747 6.32368 19.5991 6.61516 19.4753 6.84945L21.2435 7.78407C21.5401 7.22291 21.6747 6.60246 21.6747 5.94886H19.6747ZM19.4753 6.84945C19.3682 7.05197 19.2009 7.22575 18.9287 7.36809L19.8554 9.14043C20.4525 8.82822 20.9301 8.37701 21.2435 7.78407L19.4753 6.84945ZM18.9333 7.36572C18.6841 7.49436 18.3001 7.59091 17.7259 7.59091V9.59091C18.5039 9.59091 19.2307 9.46303 19.8508 9.14281L18.9333 7.36572ZM17.7259 7.59091H15.3395V9.59091H17.7259V7.59091ZM16.3395 8.59091V7.63636H14.3395V8.59091H16.3395ZM15.3395 8.63636H17.6918V6.63636H15.3395V8.63636ZM17.6918 8.63636C18.2417 8.63636 18.7815 8.55799 19.2495 8.33334L18.384 6.53029C18.2839 6.57837 18.0737 6.63636 17.6918 6.63636V8.63636ZM19.246 8.33501C19.7043 8.1172 20.0882 7.77896 20.3293 7.30756L18.5486 6.39698C18.534 6.42558 18.5031 6.47371 18.3875 6.52863L19.246 8.33501ZM20.3273 7.31142C20.5462 6.88791 20.6349 6.42223 20.6349 5.94886H18.6349C18.6349 6.17436 18.593 6.31096 18.5506 6.39312L20.3273 7.31142ZM20.6349 5.94886C20.6349 5.47431 20.5458 5.01032 20.3333 4.58546L18.5445 5.47988C18.5934 5.57775 18.6349 5.72456 18.6349 5.94886H20.6349ZM20.3333 4.58546C20.0959 4.11053 19.7185 3.76023 19.2562 3.53136L18.3688 5.32375C18.4804 5.37897 18.5206 5.43209 18.5445 5.47988L20.3333 4.58546ZM19.2632 3.5349C18.7866 3.29424 18.2353 3.21023 17.6747 3.21023V5.21023C18.0573 5.21023 18.2645 5.2711 18.3618 5.32021L19.2632 3.5349ZM17.6747 3.21023H15.8168V5.21023H17.6747V3.21023ZM14.8168 4.21023V12H16.8168V4.21023H14.8168ZM15.8168 11H14.7599V13H15.8168V11ZM17.9909 8.56L20.1386 12.4805L21.8926 11.5195L19.7449 7.59909L17.9909 8.56ZM21.0156 11H19.7884V13H21.0156V11ZM20.6686 11.5254L18.5549 7.60499L16.7945 8.5541L18.9081 12.4746L20.6686 11.5254ZM17.6747 9.07955H18.8679V7.07955H17.6747V9.07955ZM22.7937 12V13H23.4998L23.7361 12.3345L22.7937 12ZM21.6857 12L20.747 11.6553L20.2533 13H21.6857V12ZM24.8903 3.27273V2.27273H24.1922L23.9516 2.92804L24.8903 3.27273ZM25.9812 3.27273L26.9199 2.92804L26.6793 2.27273H25.9812V3.27273ZM29.1857 12V13H30.6182L30.1244 11.6553L29.1857 12ZM28.0778 12L27.1354 12.3345L27.3716 13H28.0778V12ZM25.4698 4.65341L26.4122 4.31887L26.176 3.65341H25.4698V4.65341ZM25.4016 4.65341V3.65341H24.6955L24.4593 4.31887L25.4016 4.65341ZM23.2028 8.59091V7.59091H22.2028V8.59091H23.2028ZM27.6687 8.59091H28.6687V7.59091H27.6687V8.59091ZM27.6687 9.52841V10.5284H28.6687V9.52841H27.6687ZM23.2028 9.52841H22.2028V10.5284H23.2028V9.52841ZM22.7937 11H21.6857V13H22.7937V11ZM22.6244 12.3447L25.829 3.61741L23.9516 2.92804L20.747 11.6553L22.6244 12.3447ZM24.8903 4.27273H25.9812V2.27273H24.8903V4.27273ZM25.0425 3.61741L28.247 12.3447L30.1244 11.6553L26.9199 2.92804L25.0425 3.61741ZM29.1857 11H28.0778V13H29.1857V11ZM29.0202 11.6655L26.4122 4.31887L24.5274 4.98794L27.1354 12.3345L29.0202 11.6655ZM25.4698 3.65341H25.4016V5.65341H25.4698V3.65341ZM24.4593 4.31887L21.8513 11.6655L23.7361 12.3345L26.344 4.98794L24.4593 4.31887ZM23.2028 9.59091H27.6687V7.59091H23.2028V9.59091ZM26.6687 8.59091V9.52841H28.6687V8.59091H26.6687ZM27.6687 8.52841H23.2028V10.5284H27.6687V8.52841ZM24.2028 9.52841V8.59091H22.2028V9.52841H24.2028ZM30.0646 3.27273H31.0646V2.27273H30.0646V3.27273ZM29.9368 4.78551L28.9851 4.4785L28.9831 4.48488L29.9368 4.78551ZM29.5703 5.5483L28.7338 5.00027L28.7323 5.00262L29.5703 5.5483ZM28.9908 6.1875L28.3602 6.96361L28.9859 7.47202L29.6155 6.96837L28.9908 6.1875ZM28.4453 5.74432L27.6261 5.17086L27.0923 5.93344L27.8147 6.52043L28.4453 5.74432ZM28.9098 4.94744L28.0081 4.51501L28.0063 4.51896L28.9098 4.94744ZM29.1101 3.27273V2.27273H28.1101V3.27273H29.1101ZM29.0646 3.27273V4.03977H31.0646V3.27273H29.0646ZM29.0646 4.03977C29.0646 4.15075 29.0443 4.29505 28.9851 4.47851L30.8885 5.09251C30.9998 4.74756 31.0646 4.39471 31.0646 4.03977H29.0646ZM28.9831 4.48488C28.9303 4.65224 28.8494 4.82384 28.7339 5.00027L30.4068 6.09632C30.615 5.77843 30.7785 5.44151 30.8905 5.08615L28.9831 4.48488ZM28.7323 5.00262C28.6312 5.15784 28.51 5.29147 28.3661 5.40663L29.6155 6.96837C29.9261 6.7199 30.1912 6.42739 30.4083 6.09397L28.7323 5.00262ZM29.6214 5.41139L29.0759 4.9682L27.8147 6.52043L28.3602 6.96361L29.6214 5.41139ZM29.2645 6.31778C29.4749 6.01729 29.6581 5.70327 29.8133 5.37593L28.0063 4.51896C27.9001 4.74276 27.7737 4.95998 27.6261 5.17086L29.2645 6.31778ZM29.8115 5.37987C30.0111 4.96356 30.1101 4.51856 30.1101 4.05682H28.1101C28.1101 4.22576 28.0755 4.3745 28.0081 4.51501L29.8115 5.37987ZM30.1101 4.05682V3.27273H28.1101V4.05682H30.1101ZM29.1101 4.27273H30.0646V2.27273H29.1101V4.27273ZM38.4499 3.27273H39.4499V2.27273H38.4499V3.27273ZM38.4499 12V13H39.4499V12H38.4499ZM37.4272 12L36.6057 12.5702L36.904 13H37.4272V12ZM32.6715 5.14773L33.493 4.57756L33.1947 4.14773H32.6715V5.14773ZM32.5863 5.14773V4.14773H31.5863V5.14773H32.5863ZM32.5863 12V13H33.5863V12H32.5863ZM31.5295 12H30.5295V13H31.5295V12ZM31.5295 3.27273V2.27273H30.5295V3.27273H31.5295ZM32.5522 3.27273L33.3734 2.70214L33.0751 2.27273H32.5522V3.27273ZM37.3249 10.142L36.5037 10.7126L36.802 11.142H37.3249V10.142ZM37.4102 10.142V11.142H38.4102V10.142H37.4102ZM37.4102 3.27273V2.27273H36.4102V3.27273H37.4102ZM37.4499 3.27273V12H39.4499V3.27273H37.4499ZM38.4499 11H37.4272V13H38.4499V11ZM38.2487 11.4298L33.493 4.57756L31.85 5.71789L36.6057 12.5702L38.2487 11.4298ZM32.6715 4.14773H32.5863V6.14773H32.6715V4.14773ZM31.5863 5.14773V12H33.5863V5.14773H31.5863ZM32.5863 11H31.5295V13H32.5863V11ZM32.5295 12V3.27273H30.5295V12H32.5295ZM31.5295 4.27273H32.5522V2.27273H31.5295V4.27273ZM31.731 3.84331L36.5037 10.7126L38.1462 9.57146L33.3734 2.70214L31.731 3.84331ZM37.3249 11.142H37.4102V9.14205H37.3249V11.142ZM38.4102 10.142V3.27273H36.4102V10.142H38.4102ZM37.4102 4.27273H38.4499V2.27273H37.4102V4.27273ZM41.6214 3.27273H42.6214V2.27273H41.6214V3.27273ZM41.6214 12V13H42.6214V12H41.6214ZM40.5646 12H39.5646V13H40.5646V12ZM40.5646 3.27273V2.27273H39.5646V3.27273H40.5646ZM40.6214 3.27273V12H42.6214V3.27273H40.6214ZM41.6214 11H40.5646V13H41.6214V11ZM41.5646 12V3.27273H39.5646V12H41.5646ZM40.5646 4.27273H41.6214V2.27273H40.5646V4.27273ZM50.6609 3.27273H51.6609V2.27273H50.6609V3.27273ZM50.6609 12V13H51.6609V12H50.6609ZM49.6381 12L48.8166 12.5702L49.1149 13H49.6381V12ZM44.8825 5.14773L45.704 4.57756L45.4057 4.14773H44.8825V5.14773ZM44.7972 5.14773V4.14773H43.7972V5.14773H44.7972ZM44.7972 12V13H45.7972V12H44.7972ZM43.7404 12H42.7404V13H43.7404V12ZM43.7404 3.27273V2.27273H42.7404V3.27273H43.7404ZM44.7631 3.27273L45.5844 2.70214L45.286 2.27273H44.7631V3.27273ZM49.5359 10.142L48.7146 10.7126L49.013 11.142H49.5359V10.142ZM49.6211 10.142V11.142H50.6211V10.142H49.6211ZM49.6211 3.27273V2.27273H48.6211V3.27273H49.6211ZM49.6609 3.27273V12H51.6609V3.27273H49.6609ZM50.6609 11H49.6381V13H50.6609V11ZM50.4597 11.4298L45.704 4.57756L44.0609 5.71789L48.8166 12.5702L50.4597 11.4298ZM44.8825 4.14773H44.7972V6.14773H44.8825V4.14773ZM43.7972 5.14773V12H45.7972V5.14773H43.7972ZM44.7972 11H43.7404V13H44.7972V11ZM44.7404 12V3.27273H42.7404V12H44.7404ZM43.7404 4.27273H44.7631V2.27273H43.7404V4.27273ZM43.9419 3.84331L48.7146 10.7126L50.3571 9.57146L45.5844 2.70214L43.9419 3.84331ZM49.5359 11.142H49.6211V9.14205H49.5359V11.142ZM50.6211 10.142V3.27273H48.6211V10.142H50.6211ZM49.6211 4.27273H50.6609V2.27273H49.6211V4.27273ZM60.9233 5.45455L59.9302 5.57214L60.0347 6.45455H60.9233V5.45455ZM60.3011 4.44886L59.7525 5.28491L59.7525 5.28491L60.3011 4.44886ZM57.9489 4.27841L57.5528 3.36019L57.5495 3.36163L57.9489 4.27841ZM57.2756 4.79403L56.4718 4.19903L56.4668 4.20586L57.2756 4.79403ZM57.2031 6.14062L56.3689 6.69206L56.3743 6.70026L56.3799 6.70836L57.2031 6.14062ZM57.6378 6.55398L57.1053 7.4005L57.1152 7.40658L57.6378 6.55398ZM58.1918 6.82244L57.8467 7.7611L57.8589 7.76543L58.1918 6.82244ZM58.7244 6.98864L58.9844 6.023L58.9789 6.02156L58.7244 6.98864ZM59.6108 7.22727L59.3508 8.19291L59.3569 8.1945L59.6108 7.22727ZM60.3693 7.47443L60.0161 8.40998L60.0192 8.41115L60.3693 7.47443ZM61.1747 7.90483L60.5951 8.71985L60.6055 8.72702L61.1747 7.90483ZM61.8139 8.59517L62.6729 8.08323L62.6729 8.08323L61.8139 8.59517ZM61.6946 10.9091L60.8559 10.3645L60.853 10.369L61.6946 10.9091ZM60.6207 11.8168L60.191 10.9138L60.1889 10.9148L60.6207 11.8168ZM57.2884 11.8509L56.8827 12.7649L56.8849 12.7658L57.2884 11.8509ZM56.2145 11.0071L55.4016 11.5896L55.4047 11.5938L56.2145 11.0071ZM55.7756 9.75V8.75H54.7016L54.7781 9.82125L55.7756 9.75ZM56.8665 9.75L57.8628 9.66411L57.784 8.75H56.8665V9.75ZM57.1989 10.5682L56.4536 11.235L56.4629 11.2452L57.1989 10.5682ZM57.9403 11.0455L57.608 11.9887L57.6188 11.9923L57.9403 11.0455ZM59.9986 11.0028L60.3756 11.9291L60.3826 11.9262L59.9986 11.0028ZM60.7614 10.4489L61.5441 11.0713L61.5477 11.0667L60.7614 10.4489ZM60.7997 8.90625L61.5465 8.24116L61.5465 8.24116L60.7997 8.90625ZM60.1605 8.46307L59.7654 9.3817L59.7654 9.3817L60.1605 8.46307ZM59.304 8.16477L59.0292 9.12632L59.0363 9.12829L59.304 8.16477ZM58.2301 7.85795L57.9538 8.81902L57.9554 8.81948L58.2301 7.85795ZM56.6108 7.01847L55.936 7.75649L55.936 7.75649L56.6108 7.01847ZM56.4105 4.3125L55.6023 3.72358L55.6015 3.7247L56.4105 4.3125ZM57.4844 3.46023L57.8943 4.37237L57.8969 4.37118L57.4844 3.46023ZM60.4972 3.45597L60.0785 4.36411L60.0834 4.36633L60.4972 3.45597ZM61.5369 4.27415L60.7322 4.8678L60.7354 4.87204L61.5369 4.27415ZM61.946 5.45455V6.45455H62.9788L62.9455 5.4223L61.946 5.45455ZM61.9164 5.33695C61.8305 4.61167 61.4603 4.01349 60.8498 3.61282L59.7525 5.28491C59.8692 5.36151 59.9138 5.43378 59.9302 5.57214L61.9164 5.33695ZM60.8498 3.61282C60.2911 3.24616 59.6442 3.09091 58.9631 3.09091V5.09091C59.3388 5.09091 59.5839 5.17429 59.7525 5.28491L60.8498 3.61282ZM58.9631 3.09091C58.4703 3.09091 57.9923 3.17058 57.5528 3.3602L58.345 5.19662C58.4849 5.13624 58.6832 5.09091 58.9631 5.09091V3.09091ZM57.5495 3.36163C57.1263 3.54597 56.7528 3.81949 56.4718 4.19906L58.0793 5.38901C58.1222 5.33108 58.1975 5.26084 58.3483 5.19519L57.5495 3.36163ZM56.4668 4.20586C56.1796 4.60082 56.0369 5.05665 56.0369 5.53977H58.0369C58.0369 5.46608 58.0534 5.42475 58.0843 5.38221L56.4668 4.20586ZM56.0369 5.53977C56.0369 5.93678 56.1336 6.33604 56.3689 6.69206L58.0373 5.58919C58.0418 5.59592 58.043 5.6006 58.0423 5.59812C58.0413 5.59456 58.0369 5.57688 58.0369 5.53977H56.0369ZM56.3799 6.70836C56.5736 6.98923 56.819 7.22034 57.1053 7.40044L58.1702 5.70752C58.1043 5.66603 58.0599 5.62157 58.0263 5.57289L56.3799 6.70836ZM57.1152 7.40658C57.3473 7.54884 57.5914 7.66717 57.8467 7.76102L58.5368 5.88386C58.4057 5.83567 58.2805 5.77502 58.1603 5.70138L57.1152 7.40658ZM57.8589 7.76543C58.0724 7.84079 58.2765 7.90481 58.4699 7.95571L58.9789 6.02156C58.8485 5.98723 58.6974 5.94046 58.5246 5.87945L57.8589 7.76543ZM58.4645 7.95425L59.3508 8.19289L59.8708 6.26166L58.9844 6.02302L58.4645 7.95425ZM59.3569 8.1945C59.5431 8.24338 59.7621 8.31408 60.0161 8.40997L60.7225 6.53889C60.4197 6.42456 60.1331 6.33049 59.8647 6.26004L59.3569 8.1945ZM60.0192 8.41115C60.2155 8.48448 60.4072 8.58609 60.5952 8.71978L61.7542 7.08987C61.4309 6.85993 61.0857 6.67461 60.7194 6.53771L60.0192 8.41115ZM60.6055 8.72702C60.7415 8.82114 60.8575 8.94363 60.9549 9.10711L62.6729 8.08323C62.4351 7.68421 62.125 7.34647 61.7439 7.08264L60.6055 8.72702ZM60.9549 9.10711C61.0098 9.19928 61.0653 9.35727 61.0653 9.63068H63.0653C63.0653 9.08592 62.9532 8.55356 62.6729 8.08323L60.9549 9.10711ZM61.0653 9.63068C61.0653 9.91694 60.9935 10.1525 60.8559 10.3645L62.5333 11.4536C62.89 10.9043 63.0653 10.2876 63.0653 9.63068H61.0653ZM60.853 10.369C60.7242 10.5696 60.5207 10.7569 60.191 10.9138L61.0505 12.7197C61.6639 12.4278 62.1763 12.0099 62.5362 11.4492L60.853 10.369ZM60.1889 10.9148C59.8882 11.0588 59.4747 11.1534 58.9119 11.1534V13.1534C59.6901 13.1534 60.4158 13.0236 61.0526 12.7187L60.1889 10.9148ZM58.9119 11.1534C58.3922 11.1534 57.9945 11.0693 57.6919 10.9359L56.8849 12.7658C57.497 13.0358 58.1817 13.1534 58.9119 13.1534V11.1534ZM57.694 10.9368C57.3815 10.7982 57.1705 10.6223 57.0243 10.4204L55.4047 11.5938C55.7812 12.1135 56.2861 12.5001 56.8827 12.7649L57.694 10.9368ZM57.0274 10.4247C56.8848 10.2257 56.795 9.98678 56.773 9.67875L54.7781 9.82125C54.8243 10.4678 55.0272 11.0669 55.4016 11.5896L57.0274 10.4247ZM55.7756 10.75H56.8665V8.75H55.7756V10.75ZM55.8702 9.83589C55.9144 10.3492 56.0961 10.8354 56.4536 11.235L57.9441 9.90139C57.9153 9.86917 57.8753 9.80987 57.8628 9.66411L55.8702 9.83589ZM56.4629 11.2452C56.7797 11.5896 57.17 11.8343 57.608 11.9886L58.2727 10.1023C58.1141 10.0464 58.0101 9.97295 57.9348 9.89113L56.4629 11.2452ZM57.6188 11.9923C58.0324 12.1328 58.4658 12.1989 58.9119 12.1989V10.1989C58.6649 10.1989 58.4506 10.1627 58.2619 10.0986L57.6188 11.9923ZM58.9119 12.1989C59.4237 12.1989 59.9169 12.1158 60.3756 11.929L59.6215 10.0766C59.4382 10.1513 59.207 10.1989 58.9119 10.1989V12.1989ZM60.3826 11.9262C60.8355 11.7378 61.236 11.4586 61.5441 11.0713L59.9787 9.82647C59.9117 9.91068 59.8037 10.0009 59.6145 10.0795L60.3826 11.9262ZM61.5477 11.0667C61.8807 10.6429 62.0426 10.1442 62.0426 9.61364H60.0426C60.0426 9.71943 60.0171 9.77755 59.975 9.83104L61.5477 11.0667ZM62.0426 9.61364C62.0426 9.1278 61.9015 8.6398 61.5465 8.24116L60.053 9.57134C60.0492 9.56716 60.0452 9.56168 60.0416 9.55551C60.038 9.54939 60.0364 9.54515 60.0361 9.54422C60.0354 9.54219 60.0426 9.56169 60.0426 9.61364H62.0426ZM61.5465 8.24116C61.2712 7.9321 60.9301 7.70549 60.5556 7.54443L59.7654 9.3817C59.9194 9.44792 60.0043 9.51677 60.053 9.57134L61.5465 8.24116ZM60.5556 7.54444C60.2459 7.41121 59.9173 7.29729 59.5716 7.20125L59.0363 9.12829C59.3042 9.20271 59.5467 9.28766 59.7654 9.3817L60.5556 7.54444ZM59.5787 7.20325L58.5048 6.89643L57.9554 8.81948L59.0293 9.1263L59.5787 7.20325ZM58.5064 6.89689C57.9278 6.73054 57.5393 6.51242 57.2856 6.28044L55.936 7.75649C56.4777 8.25178 57.1688 8.59332 57.9538 8.81902L58.5064 6.89689ZM57.2856 6.28044C57.1153 6.12473 57.0142 5.92684 57.0142 5.59091H55.0142C55.0142 6.43112 55.3109 7.18493 55.936 7.75649L57.2856 6.28044ZM57.0142 5.59091C57.0142 5.29405 57.0904 5.07802 57.2195 4.9003L55.6015 3.7247C55.2022 4.27425 55.0142 4.9105 55.0142 5.59091H57.0142ZM57.2187 4.90142C57.3747 4.68732 57.5901 4.50905 57.8943 4.37236L57.0745 2.54809C56.4809 2.81481 55.9804 3.20472 55.6023 3.72358L57.2187 4.90142ZM57.8969 4.37118C58.2039 4.23215 58.5651 4.15341 58.9972 4.15341V2.15341C58.3156 2.15341 57.6683 2.27921 57.0719 2.54927L57.8969 4.37118ZM58.9972 4.15341C59.4391 4.15341 59.7925 4.23224 60.0785 4.3641L60.9158 2.54783C60.3268 2.27628 59.6802 2.15341 58.9972 2.15341V4.15341ZM60.0834 4.36633C60.384 4.503 60.589 4.67371 60.7322 4.8678L62.3417 3.6805C61.9735 3.18141 61.4853 2.80666 60.911 2.5456L60.0834 4.36633ZM60.7354 4.87204C60.8692 5.05147 60.9388 5.24666 60.9465 5.48679L62.9455 5.4223C62.9248 4.78174 62.7217 4.19001 62.3385 3.67625L60.7354 4.87204ZM61.946 4.45455H60.9233V6.45455H61.946V4.45455ZM70.668 10.0227L69.772 9.57855L69.772 9.57855L70.668 10.0227ZM69.3001 11.5739L69.8316 12.4209L69.8316 12.4209L69.3001 11.5739ZM65.3285 11.5739L64.797 12.4209L64.797 12.4209L65.3285 11.5739ZM63.9606 10.0227L64.8565 9.57855L64.8565 9.57855L63.9606 10.0227ZM69.3001 3.69886L69.8316 2.8518L69.8316 2.8518L69.3001 3.69886ZM70.668 5.25L69.772 5.69417L69.772 5.69417L70.668 5.25ZM69.7646 5.72301L68.8633 6.15639L68.8653 6.16037L69.7646 5.72301ZM68.7461 4.54261L68.2151 5.38998L68.2176 5.39156L68.7461 4.54261ZM65.8782 4.54261L65.3497 3.69367L65.3472 3.69525L65.8782 4.54261ZM64.8597 5.72301L63.9604 5.28565L63.9585 5.28964L64.8597 5.72301ZM64.8597 9.54972L63.9585 9.98309L63.9604 9.98707L64.8597 9.54972ZM65.8782 10.7301L65.3472 11.5775L65.3497 11.5791L65.8782 10.7301ZM68.7461 10.7301L68.2176 9.88117L68.2151 9.88275L68.7461 10.7301ZM69.7646 9.54972L68.8653 9.11235L68.8633 9.11634L69.7646 9.54972ZM70.1665 7.63636C70.1665 8.43751 70.022 9.07427 69.772 9.57855L71.5639 10.4669C71.9787 9.63027 72.1665 8.67613 72.1665 7.63636H70.1665ZM69.772 9.57855C69.5137 10.0997 69.1773 10.4704 68.7686 10.7268L69.8316 12.4209C70.5819 11.9501 71.1575 11.2867 71.5639 10.4669L69.772 9.57855ZM68.7686 10.7268C68.3622 10.9818 67.8877 11.1193 67.3143 11.1193V13.1193C68.2295 13.1193 69.0788 12.8932 69.8316 12.4209L68.7686 10.7268ZM67.3143 11.1193C66.7408 11.1193 66.2663 10.9818 65.86 10.7268L64.797 12.4209C65.5497 12.8932 66.3991 13.1193 67.3143 13.1193V11.1193ZM65.86 10.7268C65.4513 10.4704 65.1149 10.0997 64.8565 9.57855L63.0646 10.4669C63.4711 11.2867 64.0466 11.9501 64.797 12.4209L65.86 10.7268ZM64.8565 9.57855C64.6065 9.07427 64.462 8.43751 64.462 7.63636H62.462C62.462 8.67613 62.6499 9.63027 63.0646 10.4669L64.8565 9.57855ZM64.462 7.63636C64.462 6.83522 64.6065 6.19845 64.8565 5.69417L63.0646 4.80583C62.6499 5.64245 62.462 6.5966 62.462 7.63636H64.462ZM64.8565 5.69417C65.1149 5.17304 65.4513 4.80237 65.86 4.54593L64.797 2.8518C64.0466 3.32263 63.4711 3.98605 63.0646 4.80583L64.8565 5.69417ZM65.86 4.54593C66.2663 4.29096 66.7408 4.15341 67.3143 4.15341V2.15341C66.3991 2.15341 65.5497 2.37949 64.797 2.8518L65.86 4.54593ZM67.3143 4.15341C67.8877 4.15341 68.3622 4.29096 68.7686 4.54593L69.8316 2.8518C69.0788 2.37949 68.2295 2.15341 67.3143 2.15341V4.15341ZM68.7686 4.54593C69.1773 4.80237 69.5137 5.17304 69.772 5.69417L71.5639 4.80583C71.1575 3.98605 70.5819 3.32263 69.8316 2.8518L68.7686 4.54593ZM69.772 5.69417C70.022 6.19845 70.1665 6.83522 70.1665 7.63636H72.1665C72.1665 6.5966 71.9787 5.64245 71.5639 4.80583L69.772 5.69417ZM71.1438 7.63636C71.1438 6.77386 71.0001 5.97701 70.6638 5.28565L68.8653 6.16037C69.0347 6.50879 69.1438 6.9875 69.1438 7.63636H71.1438ZM70.6658 5.28964C70.3454 4.6235 69.8866 4.07468 69.2746 3.69367L68.2176 5.39156C68.4635 5.54463 68.6837 5.78275 68.8633 6.15638L70.6658 5.28964ZM69.2771 3.69525C68.6836 3.32329 68.0205 3.14205 67.3143 3.14205V5.14205C67.6648 5.14205 67.9564 5.22784 68.2151 5.38998L69.2771 3.69525ZM67.3143 3.14205C66.608 3.14205 65.9447 3.32327 65.3497 3.69367L66.4067 5.39156C66.6696 5.22787 66.9637 5.14205 67.3143 5.14205V3.14205ZM65.3472 3.69525C64.7397 4.07595 64.2827 4.62304 63.9604 5.28565L65.759 6.16037C65.9424 5.78321 66.1644 5.54337 66.4092 5.38998L65.3472 3.69525ZM63.9585 5.28964C63.6266 5.97989 63.4847 6.77526 63.4847 7.63636H65.4847C65.4847 6.98611 65.5929 6.5059 65.7609 6.15638L63.9585 5.28964ZM63.4847 7.63636C63.4847 8.49747 63.6266 9.29283 63.9585 9.98309L65.7609 9.11634C65.5929 8.76683 65.4847 8.28662 65.4847 7.63636H63.4847ZM63.9604 9.98707C64.2827 10.6497 64.7397 11.1968 65.3472 11.5775L66.4092 9.88275C66.1644 9.72936 65.9424 9.48952 65.759 9.11236L63.9604 9.98707ZM65.3497 11.5791C65.9447 11.9495 66.608 12.1307 67.3143 12.1307V10.1307C66.9637 10.1307 66.6696 10.0449 66.4067 9.88117L65.3497 11.5791ZM67.3143 12.1307C68.0205 12.1307 68.6836 11.9494 69.2771 11.5775L68.2151 9.88275C67.9564 10.0449 67.6648 10.1307 67.3143 10.1307V12.1307ZM69.2746 11.5791C69.8866 11.198 70.3454 10.6492 70.6658 9.98309L68.8633 9.11634C68.6837 9.48998 68.4635 9.72809 68.2176 9.88117L69.2746 11.5791ZM70.6638 9.98707C71.0001 9.29572 71.1438 8.49886 71.1438 7.63636H69.1438C69.1438 8.28523 69.0347 8.76394 68.8653 9.11236L70.6638 9.98707ZM79.864 3.27273H80.864V2.27273H79.864V3.27273ZM79.864 12V13H80.864V12H79.864ZM78.8413 12L78.0197 12.5702L78.3181 13H78.8413V12ZM74.0856 5.14773L74.9071 4.57756L74.6088 4.14773H74.0856V5.14773ZM74.0004 5.14773V4.14773H73.0004V5.14773H74.0004ZM74.0004 12V13H75.0004V12H74.0004ZM72.9435 12H71.9435V13H72.9435V12ZM72.9435 3.27273V2.27273H71.9435V3.27273H72.9435ZM73.9663 3.27273L74.7875 2.70214L74.4891 2.27273H73.9663V3.27273ZM78.739 10.142L77.9178 10.7126L78.2161 11.142H78.739V10.142ZM78.8242 10.142V11.142H79.8242V10.142H78.8242ZM78.8242 3.27273V2.27273H77.8242V3.27273H78.8242ZM78.864 3.27273V12H80.864V3.27273H78.864ZM79.864 11H78.8413V13H79.864V11ZM79.6628 11.4298L74.9071 4.57756L73.2641 5.71789L78.0197 12.5702L79.6628 11.4298ZM74.0856 4.14773H74.0004V6.14773H74.0856V4.14773ZM73.0004 5.14773V12H75.0004V5.14773H73.0004ZM74.0004 11H72.9435V13H74.0004V11ZM73.9435 12V3.27273H71.9435V12H73.9435ZM72.9435 4.27273H73.9663V2.27273H72.9435V4.27273ZM73.145 3.84331L77.9178 10.7126L79.5602 9.57146L74.7875 2.70214L73.145 3.84331ZM78.739 11.142H78.8242V9.14205H78.739V11.142ZM79.8242 10.142V3.27273H77.8242V10.142H79.8242ZM78.8242 4.27273H79.864V2.27273H78.8242V4.27273ZM86.4105 3.27273H87.4105V2.27273H86.4105V3.27273ZM86.4105 12V13H87.4105V12H86.4105ZM85.3537 12H84.3537V13H85.3537V12ZM85.3537 3.27273V2.27273H84.3537V3.27273H85.3537ZM85.375 1.98153L84.6827 2.70325L84.6901 2.71016L85.375 1.98153ZM85.375 1.01847L84.6901 0.2898L84.6828 0.296785L85.375 1.01847ZM86.3849 1.01847L85.6927 1.74018L85.7 1.74709L86.3849 1.01847ZM86.3849 1.98153L85.7 1.25287L85.6927 1.25985L86.3849 1.98153ZM85.4105 3.27273V12H87.4105V3.27273H85.4105ZM86.4105 11H85.3537V13H86.4105V11ZM86.3537 12V3.27273H84.3537V12H86.3537ZM85.3537 4.27273H86.4105V2.27273H85.3537V4.27273ZM85.8821 1.18182C85.8999 1.18182 85.9343 1.18533 85.9757 1.20166C86.0171 1.21803 86.0455 1.23939 86.0599 1.25291L84.6901 2.71016C85.0187 3.01907 85.4331 3.18182 85.8821 3.18182V1.18182ZM86.0672 1.25985C86.0836 1.27555 86.1126 1.30965 86.1359 1.36317C86.1593 1.4173 86.1662 1.46684 86.1662 1.5H84.1662C84.1662 1.96864 84.3533 2.38721 84.6828 2.70322L86.0672 1.25985ZM86.1662 1.5C86.1662 1.53316 86.1593 1.5827 86.1359 1.63683C86.1126 1.69035 86.0836 1.72445 86.0672 1.74015L84.6828 0.296785C84.3533 0.612794 84.1662 1.03136 84.1662 1.5H86.1662ZM86.0599 1.74709C86.0455 1.76061 86.0171 1.78197 85.9757 1.79834C85.9343 1.81467 85.8999 1.81818 85.8821 1.81818V-0.181818C85.4331 -0.181818 85.0187 -0.0190747 84.6901 0.289837L86.0599 1.74709ZM85.8821 1.81818C85.8644 1.81818 85.8285 1.8147 85.7848 1.79727C85.7408 1.77973 85.7096 1.75639 85.6927 1.74015L87.0772 0.296783C86.7484 -0.0185466 86.3315 -0.181818 85.8821 -0.181818V1.81818ZM85.7 1.74709C85.6844 1.73244 85.6545 1.6985 85.6303 1.64363C85.6056 1.58789 85.598 1.53595 85.598 1.5H87.598C87.598 1.02444 87.404 0.603898 87.0699 0.289838L85.7 1.74709ZM85.598 1.5C85.598 1.46405 85.6056 1.41211 85.6303 1.35637C85.6545 1.3015 85.6845 1.26755 85.7 1.25291L87.0699 2.71016C87.404 2.3961 87.598 1.97556 87.598 1.5H85.598ZM85.6927 1.25985C85.7096 1.24361 85.7408 1.22027 85.7848 1.20273C85.8285 1.1853 85.8644 1.18182 85.8821 1.18182V3.18182C86.3315 3.18182 86.7484 3.01855 87.0772 2.70322L85.6927 1.25985ZM93.3022 5.45455L92.3091 5.57214L92.4136 6.45455H93.3022V5.45455ZM92.68 4.44886L92.1314 5.28491L92.1314 5.28491L92.68 4.44886ZM90.3278 4.27841L89.9317 3.36019L89.9284 3.36163L90.3278 4.27841ZM89.6545 4.79403L88.8507 4.19903L88.8457 4.20586L89.6545 4.79403ZM89.582 6.14062L88.7478 6.69206L88.7532 6.70026L88.7588 6.70836L89.582 6.14062ZM90.0167 6.55398L89.4842 7.4005L89.4941 7.40658L90.0167 6.55398ZM90.5707 6.82244L90.2256 7.7611L90.2378 7.76543L90.5707 6.82244ZM91.1033 6.98864L91.3633 6.023L91.3578 6.02156L91.1033 6.98864ZM91.9897 7.22727L91.7297 8.19291L91.7358 8.1945L91.9897 7.22727ZM92.7482 7.47443L92.395 8.40998L92.3981 8.41115L92.7482 7.47443ZM93.5536 7.90483L92.9741 8.71985L92.9844 8.72702L93.5536 7.90483ZM94.1928 8.59517L95.0518 8.08323L95.0518 8.08323L94.1928 8.59517ZM94.0735 10.9091L93.2348 10.3645L93.2319 10.369L94.0735 10.9091ZM92.9996 11.8168L92.5699 10.9138L92.5678 10.9148L92.9996 11.8168ZM89.6673 11.8509L89.2616 12.7649L89.2638 12.7658L89.6673 11.8509ZM88.5934 11.0071L87.7805 11.5896L87.7836 11.5938L88.5934 11.0071ZM88.1545 9.75V8.75H87.0805L87.157 9.82125L88.1545 9.75ZM89.2454 9.75L90.2417 9.66411L90.1629 8.75H89.2454V9.75ZM89.5778 10.5682L88.8325 11.235L88.8418 11.2452L89.5778 10.5682ZM90.3192 11.0455L89.9869 11.9887L89.9977 11.9923L90.3192 11.0455ZM92.3775 11.0028L92.7545 11.9291L92.7615 11.9262L92.3775 11.0028ZM93.1403 10.4489L93.923 11.0713L93.9266 11.0667L93.1403 10.4489ZM93.1786 8.90625L93.9254 8.24116L93.9254 8.24116L93.1786 8.90625ZM92.5394 8.46307L92.1443 9.3817L92.1443 9.3817L92.5394 8.46307ZM91.6829 8.16477L91.4082 9.12632L91.4152 9.12829L91.6829 8.16477ZM90.609 7.85795L90.3327 8.81902L90.3343 8.81948L90.609 7.85795ZM88.9897 7.01847L88.3149 7.75649L88.3149 7.75649L88.9897 7.01847ZM88.7894 4.3125L87.9812 3.72358L87.9804 3.7247L88.7894 4.3125ZM89.8633 3.46023L90.2732 4.37237L90.2758 4.37118L89.8633 3.46023ZM92.8761 3.45597L92.4574 4.36411L92.4623 4.36633L92.8761 3.45597ZM93.9158 4.27415L93.1111 4.8678L93.1143 4.87204L93.9158 4.27415ZM94.3249 5.45455V6.45455H95.3577L95.3244 5.4223L94.3249 5.45455ZM90.8647 11.9659V10.9659H90.0482L89.8849 11.7659L90.8647 11.9659ZM91.6999 11.9659L92.6805 12.162L92.9197 10.9659H91.6999V11.9659ZM91.6317 12.3068L90.6512 12.1107L90.4461 13.1362L91.4797 13.2952L91.6317 12.3068ZM92.2411 12.5838L92.8802 11.8146L92.8731 11.8088L92.2411 12.5838ZM92.0621 14.2074L91.4585 13.41L91.4503 13.4164L92.0621 14.2074ZM90.7283 14.5568L89.7297 14.608L89.7783 15.5568H90.7283V14.5568ZM90.6942 13.892V12.892H89.6417L89.6956 13.9433L90.6942 13.892ZM91.3505 13.7642L90.9268 12.8584L90.918 12.8625L90.9092 12.8669L91.3505 13.7642ZM91.3974 12.946L90.9572 13.8439L90.9572 13.8439L91.3974 12.946ZM90.6942 12.8011L89.7144 12.6012L89.4883 13.709L90.6155 13.798L90.6942 12.8011ZM94.2953 5.33695C94.2094 4.61167 93.8392 4.01349 93.2287 3.61282L92.1314 5.28491C92.2481 5.36151 92.2928 5.43378 92.3091 5.57214L94.2953 5.33695ZM93.2287 3.61282C92.67 3.24616 92.0231 3.09091 91.342 3.09091V5.09091C91.7177 5.09091 91.9628 5.17429 92.1314 5.28491L93.2287 3.61282ZM91.342 3.09091C90.8492 3.09091 90.3712 3.17058 89.9317 3.3602L90.7239 5.19662C90.8638 5.13624 91.0621 5.09091 91.342 5.09091V3.09091ZM89.9284 3.36163C89.5052 3.54597 89.1317 3.81949 88.8507 4.19906L90.4582 5.38901C90.5011 5.33108 90.5765 5.26084 90.7272 5.19519L89.9284 3.36163ZM88.8457 4.20586C88.5585 4.60082 88.4158 5.05665 88.4158 5.53977H90.4158C90.4158 5.46608 90.4323 5.42475 90.4632 5.38221L88.8457 4.20586ZM88.4158 5.53977C88.4158 5.93678 88.5125 6.33604 88.7478 6.69206L90.4163 5.58919C90.4207 5.59592 90.4219 5.6006 90.4212 5.59812C90.4202 5.59456 90.4158 5.57688 90.4158 5.53977H88.4158ZM88.7588 6.70836C88.9525 6.98923 89.1979 7.22034 89.4842 7.40044L90.5491 5.70752C90.4832 5.66603 90.4388 5.62157 90.4052 5.57289L88.7588 6.70836ZM89.4941 7.40658C89.7262 7.54884 89.9703 7.66717 90.2256 7.76102L90.9157 5.88386C90.7846 5.83567 90.6594 5.77502 90.5393 5.70138L89.4941 7.40658ZM90.2378 7.76543C90.4514 7.84079 90.6554 7.90481 90.8488 7.95571L91.3578 6.02156C91.2274 5.98723 91.0763 5.94046 90.9035 5.87945L90.2378 7.76543ZM90.8434 7.95425L91.7297 8.19289L92.2497 6.26166L91.3633 6.02302L90.8434 7.95425ZM91.7358 8.1945C91.922 8.24338 92.141 8.31408 92.395 8.40997L93.1014 6.53889C92.7986 6.42456 92.512 6.33049 92.2436 6.26004L91.7358 8.1945ZM92.3981 8.41115C92.5944 8.48448 92.7861 8.58609 92.9741 8.71978L94.1331 7.08987C93.8098 6.85993 93.4646 6.67461 93.0983 6.53771L92.3981 8.41115ZM92.9844 8.72702C93.1204 8.82114 93.2364 8.94363 93.3338 9.10711L95.0518 8.08323C94.814 7.68421 94.5039 7.34647 94.1228 7.08264L92.9844 8.72702ZM93.3338 9.10711C93.3887 9.19928 93.4442 9.35727 93.4442 9.63068H95.4442C95.4442 9.08592 95.3321 8.55356 95.0518 8.08323L93.3338 9.10711ZM93.4442 9.63068C93.4442 9.91694 93.3724 10.1525 93.2348 10.3645L94.9122 11.4536C95.2689 10.9043 95.4442 10.2876 95.4442 9.63068H93.4442ZM93.2319 10.369C93.1031 10.5696 92.8996 10.7569 92.5699 10.9138L93.4294 12.7197C94.0428 12.4278 94.5552 12.0099 94.9151 11.4492L93.2319 10.369ZM92.5678 10.9148C92.2671 11.0588 91.8536 11.1534 91.2908 11.1534V13.1534C92.069 13.1534 92.7947 13.0236 93.4315 12.7187L92.5678 10.9148ZM91.2908 11.1534C90.7711 11.1534 90.3734 11.0693 90.0708 10.9359L89.2638 12.7658C89.8759 13.0358 90.5606 13.1534 91.2908 13.1534V11.1534ZM90.0729 10.9368C89.7604 10.7982 89.5494 10.6223 89.4032 10.4204L87.7836 11.5938C88.1601 12.1135 88.665 12.5001 89.2617 12.7649L90.0729 10.9368ZM89.4063 10.4247C89.2637 10.2257 89.1739 9.98678 89.1519 9.67875L87.157 9.82125C87.2032 10.4678 87.4061 11.0669 87.7805 11.5896L89.4063 10.4247ZM88.1545 10.75H89.2454V8.75H88.1545V10.75ZM88.2491 9.83589C88.2933 10.3492 88.475 10.8354 88.8325 11.235L90.323 9.90139C90.2942 9.86917 90.2543 9.80987 90.2417 9.66411L88.2491 9.83589ZM88.8418 11.2452C89.1586 11.5896 89.5489 11.8343 89.9869 11.9886L90.6516 10.1023C90.493 10.0464 90.389 9.97295 90.3137 9.89113L88.8418 11.2452ZM89.9977 11.9923C90.4113 12.1328 90.8447 12.1989 91.2908 12.1989V10.1989C91.0438 10.1989 90.8295 10.1627 90.6408 10.0986L89.9977 11.9923ZM91.2908 12.1989C91.8026 12.1989 92.2958 12.1158 92.7545 11.929L92.0004 10.0766C91.8171 10.1513 91.5859 10.1989 91.2908 10.1989V12.1989ZM92.7615 11.9262C93.2145 11.7378 93.6149 11.4586 93.923 11.0713L92.3576 9.82647C92.2906 9.91068 92.1826 10.0009 91.9935 10.0795L92.7615 11.9262ZM93.9266 11.0667C94.2596 10.6429 94.4215 10.1442 94.4215 9.61364H92.4215C92.4215 9.71943 92.396 9.77755 92.354 9.83104L93.9266 11.0667ZM94.4215 9.61364C94.4215 9.1278 94.2804 8.6398 93.9254 8.24116L92.4319 9.57134C92.4281 9.56716 92.4241 9.56168 92.4205 9.55551C92.4169 9.54939 92.4153 9.54515 92.415 9.54422C92.4143 9.54219 92.4215 9.56169 92.4215 9.61364H94.4215ZM93.9254 8.24116C93.6501 7.9321 93.309 7.70549 92.9345 7.54443L92.1443 9.3817C92.2983 9.44792 92.3833 9.51677 92.4319 9.57134L93.9254 8.24116ZM92.9345 7.54444C92.6248 7.41121 92.2962 7.29729 91.9505 7.20125L91.4152 9.12829C91.6832 9.20271 91.9257 9.28766 92.1443 9.3817L92.9345 7.54444ZM91.9576 7.20325L90.8837 6.89643L90.3343 8.81948L91.4082 9.1263L91.9576 7.20325ZM90.8853 6.89689C90.3067 6.73054 89.9182 6.51242 89.6645 6.28044L88.3149 7.75649C88.8567 8.25178 89.5477 8.59332 90.3327 8.81902L90.8853 6.89689ZM89.6645 6.28044C89.4942 6.12473 89.3931 5.92684 89.3931 5.59091H87.3931C87.3931 6.43112 87.6898 7.18493 88.3149 7.75649L89.6645 6.28044ZM89.3931 5.59091C89.3931 5.29405 89.4693 5.07802 89.5984 4.9003L87.9804 3.7247C87.5811 4.27425 87.3931 4.9105 87.3931 5.59091H89.3931ZM89.5976 4.90142C89.7536 4.68732 89.969 4.50905 90.2732 4.37236L89.4534 2.54809C88.8598 2.81481 88.3593 3.20472 87.9812 3.72358L89.5976 4.90142ZM90.2758 4.37118C90.5828 4.23215 90.944 4.15341 91.3761 4.15341V2.15341C90.6945 2.15341 90.0472 2.27921 89.4508 2.54927L90.2758 4.37118ZM91.3761 4.15341C91.8181 4.15341 92.1714 4.23224 92.4574 4.3641L93.2947 2.54783C92.7058 2.27628 92.0591 2.15341 91.3761 2.15341V4.15341ZM92.4623 4.36633C92.7629 4.503 92.9679 4.67371 93.1111 4.8678L94.7206 3.6805C94.3524 3.18141 93.8642 2.80666 93.2899 2.5456L92.4623 4.36633ZM93.1143 4.87204C93.2481 5.05147 93.3177 5.24666 93.3254 5.48679L95.3244 5.4223C95.3037 4.78174 95.1006 4.19001 94.7174 3.67625L93.1143 4.87204ZM94.3249 4.45455H93.3022V6.45455H94.3249V4.45455ZM90.8647 12.9659H91.6999V10.9659H90.8647V12.9659ZM90.7193 11.7698L90.6512 12.1107L92.6123 12.5029L92.6805 12.162L90.7193 11.7698ZM91.4797 13.2952C91.514 13.3005 91.5536 13.3135 91.6092 13.3588L92.8731 11.8088C92.5593 11.553 92.1926 11.3813 91.7838 11.3184L91.4797 13.2952ZM91.6021 13.353C91.5791 13.3339 91.5588 13.3117 91.5427 13.2885C91.5267 13.2657 91.5181 13.2469 91.5141 13.2364C91.507 13.2176 91.5181 13.2354 91.5181 13.3125H93.5181C93.5181 12.8029 93.3721 12.2233 92.8801 11.8146L91.6021 13.353ZM91.5181 13.3125C91.5181 13.3347 91.5159 13.3469 91.5148 13.3517C91.5142 13.3542 91.5137 13.3556 91.5135 13.3561C91.5134 13.3565 91.5133 13.3568 91.5131 13.3571C91.5131 13.3571 91.5113 13.3609 91.5045 13.3687C91.4975 13.3769 91.4836 13.3911 91.4586 13.4101L92.6657 15.0047C93.2076 14.5945 93.5181 14.0066 93.5181 13.3125H91.5181ZM91.4503 13.4164C91.3969 13.4577 91.2087 13.5568 90.7283 13.5568V15.5568C91.4242 15.5568 92.1251 15.423 92.674 14.9983L91.4503 13.4164ZM91.727 14.5056L91.6929 13.8408L89.6956 13.9433L89.7297 14.608L91.727 14.5056ZM90.6942 14.892C91.0582 14.892 91.4403 14.8344 91.7918 14.6616L90.9092 12.8669C90.9141 12.8644 90.8587 12.892 90.6942 12.892V14.892ZM91.7742 14.67C92.0036 14.5627 92.2303 14.3909 92.3937 14.1327C92.5568 13.8749 92.6147 13.5975 92.6147 13.3466H90.6147C90.6147 13.2917 90.6286 13.1819 90.7036 13.0634C90.7789 12.9443 90.8736 12.8833 90.9268 12.8584L91.7742 14.67ZM92.6147 13.3466C92.6147 13.1291 92.5747 12.8721 92.4393 12.6225C92.2978 12.3616 92.0841 12.169 91.8375 12.0481L90.9572 13.8439C90.8555 13.7941 90.7505 13.7037 90.6814 13.5763C90.6184 13.4603 90.6147 13.3681 90.6147 13.3466H92.6147ZM91.8375 12.0481C91.5146 11.8898 91.1213 11.8317 90.7729 11.8042L90.6155 13.798C90.7497 13.8086 90.846 13.8225 90.9111 13.836C90.9814 13.8504 90.9874 13.8587 90.9572 13.8439L91.8375 12.0481ZM91.6741 13.0011L91.8445 12.1659L89.8849 11.7659L89.7144 12.6012L91.6741 13.0011ZM96.1818 12H95.1818V13H96.1818V12ZM96.1818 3.27273V2.27273H95.1818V3.27273H96.1818ZM97.2386 3.27273H98.2386V2.27273H97.2386V3.27273ZM97.2386 11.0625H96.2386V12.0625H97.2386V11.0625ZM101.295 11.0625H102.295V10.0625H101.295V11.0625ZM101.295 12V13H102.295V12H101.295ZM97.1818 12V3.27273H95.1818V12H97.1818ZM96.1818 4.27273H97.2386V2.27273H96.1818V4.27273ZM96.2386 3.27273V11.0625H98.2386V3.27273H96.2386ZM97.2386 12.0625H101.295V10.0625H97.2386V12.0625ZM100.295 11.0625V12H102.295V11.0625H100.295ZM101.295 11H96.1818V13H101.295V11ZM102.932 12H101.932V13H102.932V12ZM102.932 3.27273V2.27273H101.932V3.27273H102.932ZM108.199 3.27273H109.199V2.27273H108.199V3.27273ZM108.199 4.21023V5.21023H109.199V4.21023H108.199ZM103.989 4.21023V3.21023H102.989V4.21023H103.989ZM103.989 7.15909H102.989V8.15909H103.989V7.15909ZM107.926 7.15909H108.926V6.15909H107.926V7.15909ZM107.926 8.09659V9.09659H108.926V8.09659H107.926ZM103.989 8.09659V7.09659H102.989V8.09659H103.989ZM103.989 11.0625H102.989V12.0625H103.989V11.0625ZM108.267 11.0625H109.267V10.0625H108.267V11.0625ZM108.267 12V13H109.267V12H108.267ZM103.932 12V3.27273H101.932V12H103.932ZM102.932 4.27273H108.199V2.27273H102.932V4.27273ZM107.199 3.27273V4.21023H109.199V3.27273H107.199ZM108.199 3.21023H103.989V5.21023H108.199V3.21023ZM102.989 4.21023V7.15909H104.989V4.21023H102.989ZM103.989 8.15909H107.926V6.15909H103.989V8.15909ZM106.926 7.15909V8.09659H108.926V7.15909H106.926ZM107.926 7.09659H103.989V9.09659H107.926V7.09659ZM102.989 8.09659V11.0625H104.989V8.09659H102.989ZM103.989 12.0625H108.267V10.0625H103.989V12.0625ZM107.267 11.0625V12H109.267V11.0625H107.267ZM108.267 11H102.932V13H108.267V11ZM110.104 12H109.104V13H110.104V12ZM110.104 3.27273V2.27273H109.104V3.27273H110.104ZM114.732 3.62216L114.262 4.50484L114.266 4.5072L114.732 3.62216ZM115.703 4.57244L114.816 5.03458L114.816 5.03458L115.703 4.57244ZM115.703 7.31676L114.819 6.84945L114.819 6.84945L115.703 7.31676ZM114.736 8.25426L115.195 9.14282L115.199 9.14043L114.736 8.25426ZM110.683 8.59091H109.683V9.59091H110.683V8.59091ZM110.683 7.63636V6.63636H109.683V7.63636H110.683ZM114.161 7.43182L113.731 6.52862L113.728 6.53029L114.161 7.43182ZM114.783 6.85227L113.894 6.39312L113.892 6.39698L114.783 6.85227ZM114.156 4.42756L113.705 5.32024L113.713 5.32375L114.156 4.42756ZM111.161 4.21023V3.21023H110.161V4.21023H111.161ZM111.161 12V13H112.161V12H111.161ZM114.212 8.07955L115.089 7.59909L114.804 7.07955H114.212V8.07955ZM116.359 12V13H118.047L117.236 11.5195L116.359 12ZM115.132 12L114.252 12.4746L114.535 13H115.132V12ZM113.018 8.07955V7.07955H111.343L112.138 8.5541L113.018 8.07955ZM111.104 12V3.27273H109.104V12H111.104ZM110.104 4.27273H113.053V2.27273H110.104V4.27273ZM113.053 4.27273C113.629 4.27273 114.013 4.37237 114.262 4.50483L115.202 2.73949C114.575 2.40604 113.84 2.27273 113.053 2.27273V4.27273ZM114.266 4.5072C114.54 4.65115 114.708 4.8275 114.816 5.03458L116.59 4.1103C116.277 3.51057 115.798 3.0534 115.197 2.73712L114.266 4.5072ZM114.816 5.03458C114.943 5.27761 115.018 5.57437 115.018 5.94886H117.018C117.018 5.29495 116.884 4.67409 116.59 4.1103L114.816 5.03458ZM115.018 5.94886C115.018 6.32368 114.943 6.61516 114.819 6.84945L116.587 7.78407C116.884 7.22291 117.018 6.60246 117.018 5.94886H115.018ZM114.819 6.84945C114.712 7.05197 114.545 7.22575 114.272 7.36809L115.199 9.14043C115.796 8.82822 116.274 8.37701 116.587 7.78407L114.819 6.84945ZM114.277 7.36572C114.028 7.49436 113.644 7.59091 113.07 7.59091V9.59091C113.848 9.59091 114.574 9.46303 115.195 9.14281L114.277 7.36572ZM113.07 7.59091H110.683V9.59091H113.07V7.59091ZM111.683 8.59091V7.63636H109.683V8.59091H111.683ZM110.683 8.63636H113.036V6.63636H110.683V8.63636ZM113.036 8.63636C113.585 8.63636 114.125 8.55799 114.593 8.33334L113.728 6.53029C113.628 6.57837 113.417 6.63636 113.036 6.63636V8.63636ZM114.59 8.33501C115.048 8.1172 115.432 7.77896 115.673 7.30756L113.892 6.39698C113.878 6.42558 113.847 6.47371 113.731 6.52863L114.59 8.33501ZM115.671 7.31142C115.89 6.88791 115.979 6.42223 115.979 5.94886H113.979C113.979 6.17436 113.937 6.31096 113.894 6.39312L115.671 7.31142ZM115.979 5.94886C115.979 5.47431 115.89 5.01032 115.677 4.58546L113.888 5.47988C113.937 5.57775 113.979 5.72456 113.979 5.94886H115.979ZM115.677 4.58546C115.44 4.11053 115.062 3.76023 114.6 3.53136L113.713 5.32375C113.824 5.37897 113.864 5.43209 113.888 5.47988L115.677 4.58546ZM114.607 3.5349C114.13 3.29424 113.579 3.21023 113.018 3.21023V5.21023C113.401 5.21023 113.608 5.2711 113.706 5.32021L114.607 3.5349ZM113.018 3.21023H111.161V5.21023H113.018V3.21023ZM110.161 4.21023V12H112.161V4.21023H110.161ZM111.161 11H110.104V13H111.161V11ZM113.335 8.56L115.482 12.4805L117.236 11.5195L115.089 7.59909L113.335 8.56ZM116.359 11H115.132V13H116.359V11ZM116.012 11.5254L113.899 7.60499L112.138 8.5541L114.252 12.4746L116.012 11.5254ZM113.018 9.07955H114.212V7.07955H113.018V9.07955ZM118.836 3.27273H119.836V2.27273H118.836V3.27273ZM118.836 12V13H119.836V12H118.836ZM117.779 12H116.779V13H117.779V12ZM117.779 3.27273V2.27273H116.779V3.27273H117.779ZM117.801 1.98153L117.109 2.70325L117.116 2.71016L117.801 1.98153ZM117.801 1.01847L117.116 0.2898L117.109 0.296785L117.801 1.01847ZM118.811 1.01847L118.118 1.74018L118.126 1.74709L118.811 1.01847ZM118.811 1.98153L118.126 1.25287L118.118 1.25985L118.811 1.98153ZM117.836 3.27273V12H119.836V3.27273H117.836ZM118.836 11H117.779V13H118.836V11ZM118.779 12V3.27273H116.779V12H118.779ZM117.779 4.27273H118.836V2.27273H117.779V4.27273ZM118.308 1.18182C118.326 1.18182 118.36 1.18533 118.401 1.20166C118.443 1.21803 118.471 1.23939 118.486 1.25291L117.116 2.71016C117.445 3.01907 117.859 3.18182 118.308 3.18182V1.18182ZM118.493 1.25985C118.509 1.27555 118.538 1.30965 118.562 1.36317C118.585 1.4173 118.592 1.46684 118.592 1.5H116.592C116.592 1.96864 116.779 2.38721 117.109 2.70322L118.493 1.25985ZM118.592 1.5C118.592 1.53316 118.585 1.5827 118.562 1.63683C118.538 1.69035 118.509 1.72445 118.493 1.74015L117.109 0.296785C116.779 0.612794 116.592 1.03136 116.592 1.5H118.592ZM118.486 1.74709C118.471 1.76061 118.443 1.78197 118.401 1.79834C118.36 1.81467 118.326 1.81818 118.308 1.81818V-0.181818C117.859 -0.181818 117.445 -0.0190747 117.116 0.289837L118.486 1.74709ZM118.308 1.81818C118.29 1.81818 118.254 1.8147 118.211 1.79727C118.167 1.77973 118.135 1.75639 118.118 1.74015L119.503 0.296783C119.174 -0.0185466 118.757 -0.181818 118.308 -0.181818V1.81818ZM118.126 1.74709C118.11 1.73244 118.08 1.6985 118.056 1.64363C118.031 1.58789 118.024 1.53595 118.024 1.5H120.024C120.024 1.02444 119.83 0.603898 119.496 0.289838L118.126 1.74709ZM118.024 1.5C118.024 1.46405 118.031 1.41211 118.056 1.35637C118.08 1.3015 118.11 1.26755 118.126 1.25291L119.496 2.71016C119.83 2.3961 120.024 1.97556 120.024 1.5H118.024ZM118.118 1.25985C118.135 1.24361 118.167 1.22027 118.211 1.20273C118.254 1.1853 118.29 1.18182 118.308 1.18182V3.18182C118.757 3.18182 119.174 3.01855 119.503 2.70322L118.118 1.25985Z" fill="#412974" mask="url(#path-1-outside-1_225_3)"/>
</svg>
