<svg width="357" height="41" viewBox="0 0 357 41" fill="none" xmlns="http://www.w3.org/2000/svg">
<path d="M6.92041 -1.19209e-06H18.8931L24.9478 24.7656H25.4165L39.6743 -1.19209e-06H51.647L45.0063 40H35.5923L39.6743 15.4297H39.3423L25.7095 39.7461H19.7134L14.1665 15.293H13.8345L9.69385 40H0.279785L6.92041 -1.19209e-06ZM66.0366 40H51.0366L57.6772 -1.19209e-06H72.228C76.2905 -1.19209e-06 79.6759 0.826822 82.3843 2.48047C85.1056 4.12109 87.0262 6.47786 88.146 9.55078C89.2788 12.6107 89.4937 16.2565 88.7905 20.4883C88.1134 24.5768 86.7528 28.0794 84.7085 30.9961C82.6772 33.9128 80.0731 36.1458 76.896 37.6953C73.7189 39.2318 70.0991 40 66.0366 40ZM62.0522 31.7578H66.6421C68.8817 31.7578 70.8608 31.3542 72.5796 30.5469C74.3114 29.7266 75.7437 28.418 76.8765 26.6211C78.0093 24.8112 78.8166 22.4349 79.2983 19.4922C79.7671 16.6797 79.7476 14.4596 79.2397 12.832C78.745 11.1914 77.7814 10.0195 76.3491 9.3164C74.9299 8.60026 73.0744 8.24219 70.7827 8.24219H65.978L62.0522 31.7578ZM115.188 40H106.461L110.324 16.7273H118.79C121.154 16.7273 123.124 17.2083 124.699 18.1705C126.283 19.125 127.4 20.4962 128.052 22.2841C128.711 24.0644 128.836 26.1856 128.427 28.6477C128.033 31.0265 127.241 33.0644 126.052 34.7614C124.87 36.4583 123.355 37.7576 121.506 38.6591C119.658 39.553 117.552 40 115.188 40ZM112.87 35.2045H115.54C116.843 35.2045 117.995 34.9697 118.995 34.5C120.002 34.0227 120.836 33.2614 121.495 32.2159C122.154 31.1629 122.624 29.7803 122.904 28.0682C123.177 26.4318 123.165 25.1402 122.87 24.1932C122.582 23.2386 122.021 22.5568 121.188 22.1477C120.362 21.7311 119.283 21.5227 117.949 21.5227H115.154L112.87 35.2045ZM129.836 40L133.699 16.7273H149.927L149.154 21.2955H138.552L137.779 26.0682H147.552L146.779 30.6477H137.006L136.233 35.4318H146.836L146.063 40H129.836ZM149.586 40L153.449 16.7273H159.074L157.449 26.5682H157.756L167.074 16.7273H173.699L163.756 27.1136L169.983 40H163.256L159.029 30.8523L156.256 33.7273L155.211 40H149.586ZM194.52 28.7273C194.096 31.2348 193.263 33.3523 192.02 35.0795C190.785 36.7992 189.282 38.1023 187.509 38.9886C185.744 39.875 183.846 40.3182 181.816 40.3182C179.672 40.3182 177.816 39.8409 176.248 38.8864C174.679 37.9318 173.539 36.5417 172.827 34.7159C172.123 32.8902 171.986 30.6742 172.418 28.0682C172.827 25.5606 173.649 23.4394 174.884 21.7045C176.126 19.9697 177.638 18.6553 179.418 17.7614C181.206 16.8598 183.123 16.4091 185.168 16.4091C187.297 16.4091 189.141 16.8902 190.702 17.8523C192.27 18.8144 193.407 20.2121 194.111 22.0455C194.816 23.8788 194.952 26.1061 194.52 28.7273ZM188.895 28.0682C189.13 26.6061 189.13 25.375 188.895 24.375C188.668 23.375 188.221 22.6212 187.554 22.1136C186.888 21.5985 186.02 21.3409 184.952 21.3409C183.77 21.3409 182.702 21.6326 181.748 22.2159C180.801 22.7917 180.009 23.6326 179.373 24.7386C178.736 25.8371 178.293 27.1667 178.043 28.7273C177.785 30.2045 177.778 31.4356 178.02 32.4205C178.27 33.4053 178.736 34.1477 179.418 34.6477C180.1 35.1402 180.967 35.3864 182.02 35.3864C183.195 35.3864 184.251 35.1023 185.191 34.5341C186.13 33.9659 186.914 33.1364 187.543 32.0455C188.179 30.9545 188.63 29.6288 188.895 28.0682ZM195.929 40L199.793 16.7273H209.407C211.149 16.7273 212.604 17.0417 213.77 17.6705C214.937 18.2917 215.766 19.1856 216.259 20.3523C216.751 21.5114 216.865 22.8864 216.6 24.4773C216.342 26.0833 215.766 27.4508 214.873 28.5795C213.986 29.7008 212.842 30.5568 211.441 31.1477C210.047 31.7386 208.463 32.0341 206.691 32.0341H200.611L201.361 27.6023H206.395C207.236 27.6023 207.963 27.4924 208.577 27.2727C209.191 27.0455 209.679 26.7045 210.043 26.25C210.414 25.7879 210.66 25.197 210.782 24.4773C210.895 23.7576 210.842 23.1629 210.623 22.6932C210.41 22.2159 210.035 21.8598 209.498 21.625C208.967 21.3826 208.285 21.2614 207.452 21.2614H204.679L201.554 40H195.929ZM210.793 29.3636L214.827 40H208.691L204.782 29.3636H210.793ZM222.401 40H216.356L228.071 16.7273H235.56L239.549 40H233.503L230.946 22.5909H230.765L222.401 40ZM223.128 30.8409H235.765L235.037 35.1136H222.401L223.128 30.8409ZM256.597 23.75C256.658 22.8939 256.43 22.2311 255.915 21.7614C255.408 21.2917 254.605 21.0568 253.506 21.0568C252.779 21.0568 252.158 21.1515 251.642 21.3409C251.127 21.5227 250.722 21.7803 250.427 22.1136C250.131 22.4394 249.945 22.8182 249.87 23.25C249.802 23.5909 249.82 23.8939 249.927 24.1591C250.033 24.4242 250.218 24.6591 250.483 24.8636C250.756 25.0682 251.093 25.2462 251.495 25.3977C251.904 25.5492 252.362 25.6818 252.87 25.7955L254.779 26.25C255.885 26.5 256.843 26.8333 257.654 27.25C258.472 27.6591 259.135 28.1553 259.642 28.7386C260.15 29.3144 260.499 29.9773 260.688 30.7273C260.877 31.4773 260.892 32.3182 260.733 33.25C260.491 34.7197 259.911 35.9811 258.995 37.0341C258.086 38.0871 256.896 38.8939 255.427 39.4545C253.964 40.0152 252.264 40.2955 250.324 40.2955C248.385 40.2955 246.737 40.0038 245.381 39.4205C244.033 38.8295 243.055 37.9394 242.449 36.75C241.843 35.5606 241.68 34.0606 241.961 32.25H247.336C247.252 33 247.347 33.625 247.62 34.125C247.9 34.625 248.332 35.0038 248.915 35.2614C249.499 35.5189 250.203 35.6477 251.029 35.6477C251.786 35.6477 252.449 35.5455 253.017 35.3409C253.593 35.1364 254.052 34.8523 254.392 34.4886C254.741 34.125 254.953 33.7083 255.029 33.2386C255.105 32.8068 255.033 32.4318 254.813 32.1136C254.601 31.7955 254.237 31.5189 253.722 31.2841C253.214 31.0492 252.548 30.8371 251.722 30.6477L249.392 30.0795C247.468 29.6098 246.01 28.8598 245.017 27.8295C244.033 26.7992 243.684 25.4015 243.972 23.6364C244.214 22.1894 244.813 20.9242 245.767 19.8409C246.73 18.7576 247.945 17.9167 249.415 17.3182C250.892 16.7121 252.517 16.4091 254.29 16.4091C256.093 16.4091 257.608 16.7159 258.836 17.3295C260.07 17.9356 260.961 18.7917 261.506 19.8977C262.059 20.9962 262.218 22.2803 261.983 23.75H256.597ZM265.165 16.7273H271.449L274.745 26.4659H274.983L281.495 16.7273H287.779L276.699 32.2273L275.404 40H269.813L271.12 32.2273L265.165 16.7273ZM308.583 28.7273C308.159 31.2348 307.325 33.3523 306.083 35.0795C304.848 36.7992 303.344 38.1023 301.571 38.9886C299.806 39.875 297.909 40.3182 295.878 40.3182C293.734 40.3182 291.878 39.8409 290.31 38.8864C288.742 37.9318 287.602 36.5417 286.89 34.7159C286.185 32.8902 286.049 30.6742 286.481 28.0682C286.89 25.5606 287.712 23.4394 288.946 21.7045C290.189 19.9697 291.7 18.6553 293.481 17.7614C295.268 16.8598 297.185 16.4091 299.231 16.4091C301.359 16.4091 303.204 16.8902 304.765 17.8523C306.333 18.8144 307.469 20.2121 308.174 22.0455C308.878 23.8788 309.015 26.1061 308.583 28.7273ZM302.958 28.0682C303.193 26.6061 303.193 25.375 302.958 24.375C302.731 23.375 302.284 22.6212 301.617 22.1136C300.95 21.5985 300.083 21.3409 299.015 21.3409C297.833 21.3409 296.765 21.6326 295.81 22.2159C294.863 22.7917 294.071 23.6326 293.435 24.7386C292.799 25.8371 292.356 27.1667 292.106 28.7273C291.848 30.2045 291.84 31.4356 292.083 32.4205C292.333 33.4053 292.799 34.1477 293.481 34.6477C294.162 35.1402 295.03 35.3864 296.083 35.3864C297.257 35.3864 298.314 35.1023 299.253 34.5341C300.193 33.9659 300.977 33.1364 301.606 32.0455C302.242 30.9545 302.693 29.6288 302.958 28.0682ZM333.662 16.7273L329.799 40H325.026L318.015 26.5682H317.856L315.617 40H309.992L313.856 16.7273H318.696L325.651 30.1364H325.844L328.049 16.7273H333.662ZM351.279 16.7273H356.892L354.404 31.7386C354.116 33.4735 353.453 34.9848 352.415 36.2727C351.385 37.553 350.07 38.5455 348.472 39.25C346.874 39.947 345.093 40.2955 343.131 40.2955C341.161 40.2955 339.499 39.947 338.142 39.25C336.786 38.5455 335.805 37.553 335.199 36.2727C334.593 34.9848 334.43 33.4735 334.711 31.7386L337.199 16.7273H342.824L340.404 31.25C340.275 32.053 340.336 32.7689 340.586 33.3977C340.843 34.0189 341.26 34.5114 341.836 34.875C342.411 35.2311 343.116 35.4091 343.949 35.4091C344.79 35.4091 345.559 35.2311 346.256 34.875C346.953 34.5114 347.529 34.0189 347.983 33.3977C348.438 32.7689 348.73 32.053 348.858 31.25L351.279 16.7273Z" fill="#120974"/>
</svg>
