<svg width="94" height="23" viewBox="0 0 94 23" fill="none" xmlns="http://www.w3.org/2000/svg">
<g filter="url(#filter0_d_225_3)">
<path d="M6.39959 0.909091H10.3179L12.2994 9.0142H12.4529L17.1191 0.909091H21.0374L18.8641 14H15.7831L17.1191 5.95881H17.0104L12.5487 13.9169H10.5864L8.77104 5.91406H8.66238L7.30726 14H4.2263L6.39959 0.909091ZM24.3383 5.27273L22.8895 14H20.7801L22.229 5.27273H24.3383ZM24.2137 14L25.6626 5.27273H29.2677C29.9211 5.27273 30.4665 5.39062 30.904 5.62642C31.3415 5.85937 31.6526 6.1946 31.8373 6.6321C32.0219 7.06676 32.0645 7.58239 31.9651 8.17898C31.8685 8.78125 31.6526 9.29403 31.3174 9.71733C30.985 10.1378 30.556 10.4588 30.0305 10.6804C29.5077 10.902 28.914 11.0128 28.2492 11.0128H25.9694L26.2506 9.35085H28.1384C28.4537 9.35085 28.7265 9.30966 28.9566 9.22727C29.1867 9.14205 29.3699 9.0142 29.5063 8.84375C29.6455 8.67045 29.7378 8.44886 29.7833 8.17898C29.8259 7.90909 29.806 7.68608 29.7236 7.50994C29.6441 7.33097 29.5035 7.19744 29.3018 7.10938C29.1029 7.01847 28.8472 6.97301 28.5347 6.97301H27.4949L26.3231 14H24.2137ZM29.7876 10.0114L31.3003 14H28.9992L27.5333 10.0114H29.7876ZM34.1405 14H31.8735L36.267 5.27273H39.0752L40.5709 14H38.3039L37.3451 7.47159H37.2769L34.1405 14ZM34.4133 10.5653H39.1519L38.8792 12.1676H34.1405L34.4133 10.5653ZM49.0553 14H44.1462L46.3195 0.909091H51.0816C52.4111 0.909091 53.5191 1.17969 54.4055 1.72088C55.2961 2.25781 55.9246 3.02912 56.2911 4.0348C56.6618 5.03622 56.7322 6.2294 56.502 7.61435C56.2805 8.95241 55.8351 10.0987 55.1661 11.0533C54.5013 12.0078 53.6491 12.7386 52.6093 13.2457C51.5695 13.7486 50.3849 14 49.0553 14ZM47.7513 11.3026H49.2535C49.9864 11.3026 50.6341 11.1705 51.1966 10.9062C51.7634 10.6378 52.2322 10.2095 52.6029 9.62145C52.9736 9.02912 53.2378 8.25142 53.3955 7.28835C53.5489 6.3679 53.5425 5.64133 53.3763 5.10866C53.2144 4.57173 52.8991 4.18821 52.4303 3.9581C51.9658 3.72372 51.3586 3.60653 50.6086 3.60653H49.0361L47.7513 11.3026ZM57.2371 14L58.686 5.27273H64.7712L64.4814 6.9858H60.5056L60.2158 8.77557H63.8806L63.5908 10.4929H59.926L59.6363 12.2869H63.6121L63.3224 14H57.2371ZM64.6434 14L66.0922 5.27273H68.2016L67.5922 8.96307H67.7073L71.2016 5.27273H73.686L69.9573 9.16761L72.2925 14H69.7698L68.1846 10.5696L67.1448 11.6477L66.7528 14H64.6434ZM81.4939 9.77273C81.3348 10.7131 81.0223 11.5071 80.5564 12.1548C80.0933 12.7997 79.5294 13.2884 78.8646 13.6207C78.2027 13.9531 77.491 14.1193 76.7297 14.1193C75.9257 14.1193 75.2297 13.9403 74.6416 13.5824C74.0535 13.2244 73.626 12.7031 73.3589 12.0185C73.0947 11.3338 73.0436 10.5028 73.2055 9.52557C73.3589 8.58523 73.6672 7.78977 74.1302 7.1392C74.5961 6.48864 75.1629 5.99574 75.8305 5.66051C76.501 5.32244 77.2197 5.15341 77.9868 5.15341C78.7851 5.15341 79.4768 5.33381 80.0621 5.6946C80.6501 6.0554 81.0763 6.57955 81.3405 7.26705C81.6047 7.95455 81.6558 8.78977 81.4939 9.77273ZM79.3845 9.52557C79.4726 8.97727 79.4726 8.51562 79.3845 8.14062C79.2993 7.76562 79.1317 7.48295 78.8817 7.29261C78.6317 7.09943 78.3064 7.00284 77.9058 7.00284C77.4626 7.00284 77.0621 7.11222 76.7041 7.33097C76.349 7.54687 76.0521 7.86222 75.8135 8.27699C75.5748 8.68892 75.4086 9.1875 75.3149 9.77273C75.2183 10.3267 75.2155 10.7884 75.3064 11.1577C75.4001 11.527 75.5748 11.8054 75.8305 11.9929C76.0862 12.1776 76.4115 12.2699 76.8064 12.2699C77.2467 12.2699 77.643 12.1634 77.9953 11.9503C78.3476 11.7372 78.6416 11.4261 78.8774 11.017C79.116 10.608 79.2851 10.1108 79.3845 9.52557ZM82.0223 14L83.4711 5.27273H87.0763C87.7297 5.27273 88.2751 5.39062 88.7126 5.62642C89.1501 5.85937 89.4612 6.1946 89.6459 6.6321C89.8305 7.06676 89.8731 7.58239 89.7737 8.17898C89.6771 8.78125 89.4612 9.29403 89.126 9.71733C88.7936 10.1378 88.3646 10.4588 87.839 10.6804C87.3163 10.902 86.7226 11.0128 86.0578 11.0128H83.778L84.0592 9.35085H85.947C86.2623 9.35085 86.5351 9.30966 86.7652 9.22727C86.9953 9.14205 87.1785 9.0142 87.3149 8.84375C87.4541 8.67045 87.5464 8.44886 87.5919 8.17898C87.6345 7.90909 87.6146 7.68608 87.5322 7.50994C87.4527 7.33097 87.3121 7.19744 87.1104 7.10938C86.9115 7.01847 86.6558 6.97301 86.3433 6.97301H85.3035L84.1317 14H82.0223ZM87.5961 10.0114L89.1089 14H86.8078L85.3419 10.0114H87.5961Z" fill="#120974"/>
</g>
<defs>
<filter id="filter0_d_225_3" x="0.226318" y="0.909119" width="93.6965" height="21.2102" filterUnits="userSpaceOnUse" color-interpolation-filters="sRGB">
<feFlood flood-opacity="0" result="BackgroundImageFix"/>
<feColorMatrix in="SourceAlpha" type="matrix" values="0 0 0 0 0 0 0 0 0 0 0 0 0 0 0 0 0 0 127 0" result="hardAlpha"/>
<feOffset dy="4"/>
<feGaussianBlur stdDeviation="2"/>
<feComposite in2="hardAlpha" operator="out"/>
<feColorMatrix type="matrix" values="0 0 0 0 0 0 0 0 0 0 0 0 0 0 0 0 0 0 0.25 0"/>
<feBlend mode="normal" in2="BackgroundImageFix" result="effect1_dropShadow_225_3"/>
<feBlend mode="normal" in="SourceGraphic" in2="effect1_dropShadow_225_3" result="shape"/>
</filter>
</defs>
</svg>
