<svg width="86" height="15" viewBox="0 0 86 15" fill="none" xmlns="http://www.w3.org/2000/svg">
<path d="M2.39959 0.909091H6.31792L8.29945 9.0142H8.45286L13.1191 0.909091H17.0374L14.8641 14H11.7831L13.1191 5.95881H13.0104L8.54874 13.9169H6.58638L4.77104 5.91406H4.66238L3.30726 14H0.226296L2.39959 0.909091ZM20.3383 5.27273L18.8895 14H16.7801L18.229 5.27273H20.3383ZM20.2137 14L21.6626 5.27273H25.2677C25.9211 5.27273 26.4665 5.39062 26.904 5.62642C27.3415 5.85937 27.6526 6.1946 27.8373 6.6321C28.0219 7.06676 28.0645 7.58239 27.9651 8.17898C27.8685 8.78125 27.6526 9.29403 27.3174 9.71733C26.985 10.1378 26.556 10.4588 26.0305 10.6804C25.5077 10.902 24.914 11.0128 24.2492 11.0128H21.9694L22.2506 9.35085H24.1384C24.4537 9.35085 24.7265 9.30966 24.9566 9.22727C25.1867 9.14205 25.3699 9.0142 25.5063 8.84375C25.6455 8.67045 25.7378 8.44886 25.7833 8.17898C25.8259 7.90909 25.806 7.68608 25.7236 7.50994C25.6441 7.33097 25.5035 7.19744 25.3018 7.10938C25.1029 7.01847 24.8472 6.97301 24.5347 6.97301H23.4949L22.3231 14H20.2137ZM25.7876 10.0114L27.3003 14H24.9992L23.5333 10.0114H25.7876ZM30.1405 14H27.8735L32.267 5.27273H35.0752L36.5709 14H34.3039L33.3451 7.47159H33.2769L30.1405 14ZM30.4133 10.5653H35.1519L34.8792 12.1676H30.1405L30.4133 10.5653ZM45.0553 14H40.1462L42.3195 0.909091H47.0816C48.4111 0.909091 49.5191 1.17969 50.4055 1.72088C51.2961 2.25781 51.9246 3.02912 52.2911 4.0348C52.6618 5.03622 52.7322 6.2294 52.502 7.61435C52.2805 8.95241 51.8351 10.0987 51.1661 11.0533C50.5013 12.0078 49.6491 12.7386 48.6093 13.2457C47.5695 13.7486 46.3849 14 45.0553 14ZM43.7513 11.3026H45.2535C45.9864 11.3026 46.6341 11.1705 47.1966 10.9062C47.7634 10.6378 48.2322 10.2095 48.6029 9.62145C48.9736 9.02912 49.2378 8.25142 49.3955 7.28835C49.5489 6.3679 49.5425 5.64133 49.3763 5.10866C49.2144 4.57173 48.8991 4.18821 48.4303 3.9581C47.9658 3.72372 47.3586 3.60653 46.6086 3.60653H45.0361L43.7513 11.3026ZM53.2371 14L54.686 5.27273H60.7712L60.4814 6.9858H56.5056L56.2158 8.77557H59.8806L59.5908 10.4929H55.926L55.6363 12.2869H59.6121L59.3224 14H53.2371ZM60.6434 14L62.0922 5.27273H64.2016L63.5922 8.96307H63.7073L67.2016 5.27273H69.686L65.9573 9.16761L68.2925 14H65.7698L64.1846 10.5696L63.1448 11.6477L62.7528 14H60.6434ZM77.4939 9.77273C77.3348 10.7131 77.0223 11.5071 76.5564 12.1548C76.0933 12.7997 75.5294 13.2884 74.8646 13.6207C74.2027 13.9531 73.491 14.1193 72.7297 14.1193C71.9257 14.1193 71.2297 13.9403 70.6416 13.5824C70.0535 13.2244 69.626 12.7031 69.3589 12.0185C69.0947 11.3338 69.0436 10.5028 69.2055 9.52557C69.3589 8.58523 69.6672 7.78977 70.1302 7.1392C70.5961 6.48864 71.1629 5.99574 71.8305 5.66051C72.501 5.32244 73.2197 5.15341 73.9868 5.15341C74.7851 5.15341 75.4768 5.33381 76.0621 5.6946C76.6501 6.0554 77.0763 6.57955 77.3405 7.26705C77.6047 7.95455 77.6558 8.78977 77.4939 9.77273ZM75.3845 9.52557C75.4726 8.97727 75.4726 8.51562 75.3845 8.14062C75.2993 7.76562 75.1317 7.48295 74.8817 7.29261C74.6317 7.09943 74.3064 7.00284 73.9058 7.00284C73.4626 7.00284 73.0621 7.11222 72.7041 7.33097C72.349 7.54687 72.0521 7.86222 71.8135 8.27699C71.5748 8.68892 71.4086 9.1875 71.3149 9.77273C71.2183 10.3267 71.2155 10.7884 71.3064 11.1577C71.4001 11.527 71.5748 11.8054 71.8305 11.9929C72.0862 12.1776 72.4115 12.2699 72.8064 12.2699C73.2467 12.2699 73.643 12.1634 73.9953 11.9503C74.3476 11.7372 74.6416 11.4261 74.8774 11.017C75.116 10.608 75.2851 10.1108 75.3845 9.52557ZM78.0223 14L79.4711 5.27273H83.0763C83.7297 5.27273 84.2751 5.39062 84.7126 5.62642C85.1501 5.85937 85.4612 6.1946 85.6459 6.6321C85.8305 7.06676 85.8731 7.58239 85.7737 8.17898C85.6771 8.78125 85.4612 9.29403 85.126 9.71733C84.7936 10.1378 84.3646 10.4588 83.839 10.6804C83.3163 10.902 82.7226 11.0128 82.0578 11.0128H79.778L80.0592 9.35085H81.947C82.2623 9.35085 82.5351 9.30966 82.7652 9.22727C82.9953 9.14205 83.1785 9.0142 83.3149 8.84375C83.4541 8.67045 83.5464 8.44886 83.5919 8.17898C83.6345 7.90909 83.6146 7.68608 83.5322 7.50994C83.4527 7.33097 83.3121 7.19744 83.1104 7.10938C82.9115 7.01847 82.6558 6.97301 82.3433 6.97301H81.3035L80.1317 14H78.0223ZM83.5961 10.0114L85.1089 14H82.8078L81.3419 10.0114H83.5961Z" fill="#120974"/>
</svg>
